<?xml version="1.0" encoding="UTF-8" standalone="no"?>
<!-- Created with Inkscape (http://www.inkscape.org/) -->

<svg
   xmlns:dc="http://purl.org/dc/elements/1.1/"
   xmlns:cc="http://creativecommons.org/ns#"
   xmlns:rdf="http://www.w3.org/1999/02/22-rdf-syntax-ns#"
   xmlns:svg="http://www.w3.org/2000/svg"
   xmlns="http://www.w3.org/2000/svg"
   xmlns:sodipodi="http://sodipodi.sourceforge.net/DTD/sodipodi-0.dtd"
   xmlns:inkscape="http://www.inkscape.org/namespaces/inkscape"
   id="svg2"
   version="1.1"
   inkscape:version="0.48.3.1 r9886"
   width="992.5"
   height="743.75"
   xml:space="preserve"
   sodipodi:docname="presentazione_netfilter.svg"><metadata
     id="metadata8"><rdf:RDF><cc:Work
         rdf:about=""><dc:format>image/svg+xml</dc:format><dc:type
           rdf:resource="http://purl.org/dc/dcmitype/StillImage" /><dc:title /></cc:Work></rdf:RDF></metadata><defs
     id="defs6"><clipPath
       clipPathUnits="userSpaceOnUse"
       id="clipPath16"><path
         d="m 0,-0.2 793.6,0 0,595.2 L 0,595 0,-0.2 z"
         clip-rule="evenodd"
         id="path18" /></clipPath><clipPath
       clipPathUnits="userSpaceOnUse"
       id="clipPath42"><path
         d="m 19.8,396.5 128.1,0 0,73.8 -128.1,0 0,-73.8 z"
         id="path44" /></clipPath><clipPath
       clipPathUnits="userSpaceOnUse"
       id="clipPath66"><path
         d="m 334.5,396.5 128.1,0 0,73.8 -128.1,0 0,-73.8 z"
         id="path68" /></clipPath><clipPath
       clipPathUnits="userSpaceOnUse"
       id="clipPath90"><path
         d="m 652,396.5 128.1,0 0,73.8 -128.1,0 0,-73.8 z"
         id="path92" /></clipPath><clipPath
       clipPathUnits="userSpaceOnUse"
       id="clipPath114"><path
         d="m 175.8,257.6 128.1,0 0,73.8 -128.1,0 0,-73.8 z"
         id="path116" /></clipPath><clipPath
       clipPathUnits="userSpaceOnUse"
       id="clipPath138"><path
         d="m 493.3,257.6 128.1,0 0,73.8 -128.1,0 0,-73.8 z"
         id="path140" /></clipPath></defs><sodipodi:namedview
     pagecolor="#ffffff"
     bordercolor="#666666"
     borderopacity="1"
     objecttolerance="10"
     gridtolerance="10"
     guidetolerance="10"
     inkscape:pageopacity="0"
     inkscape:pageshadow="2"
     inkscape:window-width="1920"
     inkscape:window-height="1052"
     id="namedview4"
     showgrid="false"
     inkscape:zoom="0.89749082"
     inkscape:cx="496.25"
     inkscape:cy="371.875"
     inkscape:window-x="0"
     inkscape:window-y="0"
     inkscape:window-maximized="1"
     inkscape:current-layer="g10" /><g
     id="g10"
     inkscape:groupmode="layer"
     inkscape:label="presentazione_netfilter"
     transform="matrix(1.25,0,0,-1.25,0,743.75)"><g
       id="g12"><g
         id="g14"
         clip-path="url(#clipPath16)"><path
   d="m 0,595 793.7,0 0,-595.2 L 0,-0.2 0,595 z"
   style="fill:#ffffff;fill-opacity:1;fill-rule:evenodd;stroke:none"
   id="path20" /><g
   id="g22" /><g
   id="g24" /><g
   id="g26"><text
   transform="matrix(1,0,0,-1,125.2,554.7)"
   id="text28"><tspan
     style="font-size:44px;font-variant:normal;font-weight:normal;writing-mode:lr-tb;fill:#000000;fill-opacity:1;fill-rule:nonzero;stroke:none;font-family:DejaVu Serif;-inkscape-font-specification:DejaVuSerif"
     x="0"
     y="0"
     sodipodi:role="line"
     id="tspan30" /></text>

</g><g
   id="g32"><text
   transform="matrix(1,0,0,-1,153.1,503.3)"
   id="text34"><tspan
     style="font-size:44px;font-variant:normal;font-weight:normal;writing-mode:lr-tb;fill:#000000;fill-opacity:1;fill-rule:nonzero;stroke:none;font-family:DejaVu Serif;-inkscape-font-specification:DejaVuSerif"
     x="0"
     y="0"
     sodipodi:role="line"
     id="tspan36" /></text>

</g><g
   id="g38"><g
     id="g40" /><g
     id="g46"><g
       clip-path="url(#clipPath42)"
       id="g48"
       opacity="0.25"><path
         d="m 83.8,396.6 -64,0 0,73.7 128.1,0 0,-73.7 -64.1,0 z"
         style="fill:#008000;fill-opacity:1;fill-rule:evenodd;stroke:none"
         id="path50" /></g></g></g><g
   id="g52"><path
     d="m 83.8,396.6 -64,0 0,73.7 128.1,0 0,-73.7 -64.1,0 z"
     style="fill:none;stroke:#000000;stroke-opacity:1;stroke-width:2.83;stroke-linecap:butt;stroke-linejoin:round;stroke-miterlimit:10;stroke-dasharray:none"
     id="path54" /></g><g
   id="g56"><text
   transform="matrix(1,0,0,-1,28.9,428.9)"
   id="text58"><tspan
     style="fill:#000000;fill-opacity:1;fill-rule:nonzero;stroke:none;font-family:DejaVu Serif;font-variant:normal;font-weight:bold;font-size:18;writing-mode:lr;-inkscape-font-specification:DejaVuSerif-Bold"
     x="0 13.59 23.076 34.47 43.956 55.944 68.94 77.238 84.114 97.11"
     y="0"
     sodipodi:role="line"
     id="tspan60">Prerouting</tspan></text>

</g><g
   id="g62"><g
     id="g64" /><g
     id="g70"><g
       clip-path="url(#clipPath66)"
       id="g72"
       opacity="0.25"><path
         d="m 398.5,396.6 -64,0 0,73.7 128,0 0,-73.7 -64,0 z"
         style="fill:#008000;fill-opacity:1;fill-rule:evenodd;stroke:none"
         id="path74" /></g></g></g><g
   id="g76"><path
     d="m 398.5,396.6 -64,0 0,73.7 128,0 0,-73.7 -64,0 z"
     style="fill:none;stroke:#000000;stroke-opacity:1;stroke-width:2.83;stroke-linecap:butt;stroke-linejoin:round;stroke-miterlimit:10;stroke-dasharray:none"
     id="path78" /></g><g
   id="g80"><text
   transform="matrix(1,0,0,-1,357.2,428.9)"
   id="text82"><tspan
     style="fill:#000000;fill-opacity:1;fill-rule:nonzero;stroke:none;font-family:DejaVu Serif;font-variant:normal;font-weight:bold;font-size:18;writing-mode:lr;-inkscape-font-specification:DejaVuSerif-Bold"
     x="0 11.898 23.886 33.372 48.852 60.444 69.93"
     y="0"
     sodipodi:role="line"
     id="tspan84">Forward</tspan></text>

</g><g
   id="g86"><g
     id="g88" /><g
     id="g94"><g
       clip-path="url(#clipPath90)"
       id="g96"
       opacity="0.25"><path
         d="m 716,396.6 -64,0 0,73.7 128,0 0,-73.7 -64,0 z"
         style="fill:#008000;fill-opacity:1;fill-rule:evenodd;stroke:none"
         id="path98" /></g></g></g><g
   id="g100"><path
     d="m 716,396.6 -64,0 0,73.7 128,0 0,-73.7 -64,0 z"
     style="fill:none;stroke:#000000;stroke-opacity:1;stroke-width:2.83;stroke-linecap:butt;stroke-linejoin:round;stroke-miterlimit:10;stroke-dasharray:none"
     id="path102" /></g><g
   id="g104"><text
   transform="matrix(1,0,0,-1,656.6,428.9)"
   id="text106"><tspan
     style="fill:#000000;fill-opacity:1;fill-rule:nonzero;stroke:none;font-family:DejaVu Serif;font-variant:normal;font-weight:bold;font-size:18;writing-mode:lr;-inkscape-font-specification:DejaVuSerif-Bold"
     x="0 13.104 25.092 35.19 43.398 52.884 64.872 77.958 86.256 93.06 106.146"
     y="0"
     sodipodi:role="line"
     id="tspan108">Postrouting</tspan></text>

</g><g
   id="g110"><g
     id="g112" /><g
     id="g118"><g
       clip-path="url(#clipPath114)"
       id="g120"
       opacity="0.25"><path
         d="m 239.8,257.7 -64,0 0,73.7 128,0 0,-73.7 -64,0 z"
         style="fill:#008000;fill-opacity:1;fill-rule:evenodd;stroke:none"
         id="path122" /></g></g></g><g
   id="g124"><path
     d="m 239.8,257.7 -64,0 0,73.7 128,0 0,-73.7 -64,0 z"
     style="fill:none;stroke:#000000;stroke-opacity:1;stroke-width:2.83;stroke-linecap:butt;stroke-linejoin:round;stroke-miterlimit:10;stroke-dasharray:none"
     id="path126" /></g><g
   id="g128"><text
   transform="matrix(1,0,0,-1,212.1,290)"
   id="text130"><tspan
     style="fill:#000000;fill-opacity:1;fill-rule:nonzero;stroke:none;font-family:DejaVu Serif;font-variant:normal;font-weight:bold;font-size:18;writing-mode:lr;-inkscape-font-specification:DejaVuSerif-Bold"
     x="0 8.406 21.492 34.074 47.16"
     y="0"
     sodipodi:role="line"
     id="tspan132">Input</tspan></text>

</g><g
   id="g134"><g
     id="g136" /><g
     id="g142"><g
       clip-path="url(#clipPath138)"
       id="g144"
       opacity="0.25"><path
         d="m 557.3,257.7 -64,0 0,73.7 128,0 0,-73.7 -64,0 z"
         style="fill:#008000;fill-opacity:1;fill-rule:evenodd;stroke:none"
         id="path146" /></g></g></g><g
   id="g148"><path
     d="m 557.3,257.7 -64,0 0,73.7 128,0 0,-73.7 -64,0 z"
     style="fill:none;stroke:#000000;stroke-opacity:1;stroke-width:2.83;stroke-linecap:butt;stroke-linejoin:round;stroke-miterlimit:10;stroke-dasharray:none"
     id="path150" /></g><g
   id="g152"><text
   transform="matrix(1,0,0,-1,521.8,290)"
   id="text154"><tspan
     style="fill:#000000;fill-opacity:1;fill-rule:nonzero;stroke:none;font-family:DejaVu Serif;font-variant:normal;font-weight:bold;font-size:18;writing-mode:lr;-inkscape-font-specification:DejaVuSerif-Bold"
     x="0 15.678 28.764 37.062 49.644 62.73"
     y="0"
     sodipodi:role="line"
     id="tspan156">Output</tspan></text>

</g><g
   id="g158"><path
     d="m 238.1,458.9 c 35.4,0 62.4,-12.2 62.4,-28.3 0,-16.1 -27,-28.4 -62.4,-28.4 -35.3,0 -62.4,12.3 -62.4,28.4 0,16.1 27.1,28.3 62.4,28.3 z"
     style="fill:none;stroke:#000000;stroke-opacity:1;stroke-width:2.83;stroke-linecap:butt;stroke-linejoin:round;stroke-miterlimit:10;stroke-dasharray:none"
     id="path160" /></g><g
   id="g162"><path
     d="m 175.7,458.9 0,0 z"
     style="fill:none;stroke:#000000;stroke-opacity:1;stroke-width:2.83;stroke-linecap:butt;stroke-linejoin:round;stroke-miterlimit:10;stroke-dasharray:none"
     id="path164" /></g><g
   id="g166"><path
     d="m 300.5,402.2 0,0 z"
     style="fill:none;stroke:#000000;stroke-opacity:1;stroke-width:2.83;stroke-linecap:butt;stroke-linejoin:round;stroke-miterlimit:10;stroke-dasharray:none"
     id="path168" /></g><g
   id="g170"><text
   transform="matrix(1,0,0,-1,202.1,434.3)"
   id="text172"><tspan
     style="fill:#000000;fill-opacity:1;fill-rule:nonzero;stroke:none;font-family:DejaVu Serif;font-variant:normal;font-weight:normal;font-size:16;writing-mode:lr;-inkscape-font-specification:DejaVuSerif"
     x="0 12.88 17.984 25.664 35.152 41.456 47.856 57.456 62.448"
     y="0"
     sodipodi:role="line"
     id="tspan174">Diretto a</tspan></text>

</g><g
   id="g176"><text
   transform="matrix(1,0,0,-1,221.3,415.8)"
   id="text178"><tspan
     style="fill:#000000;fill-opacity:1;fill-rule:nonzero;stroke:none;font-family:DejaVu Serif;font-variant:normal;font-weight:normal;font-size:16;writing-mode:lr;-inkscape-font-specification:DejaVuSerif"
     x="0 10.304 19.984 25.088"
     y="0"
     sodipodi:role="line"
     id="tspan180">noi?</tspan></text>

</g><g
   id="g182"><path
     d="m 147.9,430.6 15.7,0"
     style="fill:none;stroke:#000000;stroke-opacity:1;stroke-width:2.8;stroke-linecap:butt;stroke-linejoin:miter;stroke-miterlimit:10;stroke-dasharray:none"
     id="path184" /></g><path
   d="m 175.7,430.6 -12.7,4.2 0,-8.5 12.7,4.3 z"
   style="fill:#000000;fill-opacity:1;fill-rule:evenodd;stroke:none"
   id="path186" /><g
   id="g188"><path
     d="m 238.1,402.2 0,-58.6"
     style="fill:none;stroke:#000000;stroke-opacity:1;stroke-width:2.8;stroke-linecap:butt;stroke-linejoin:miter;stroke-miterlimit:10;stroke-dasharray:none"
     id="path190" /></g><path
   d="m 238.1,331.4 4.3,12.7 -8.5,0 4.2,-12.7 z"
   style="fill:#000000;fill-opacity:1;fill-rule:evenodd;stroke:none"
   id="path192" /><text
   transform="matrix(0,-1,-1,0,242.3,375.9)"
   id="text194"><tspan
     style="fill:#000000;fill-opacity:1;fill-rule:nonzero;stroke:none;font-family:DejaVu Serif;font-variant:normal;font-weight:normal;font-size:18;writing-mode:lr;-inkscape-font-specification:DejaVuSerif"
     x="0"
     y="0"
     id="tspan196">S</tspan></text>

<text
   transform="matrix(0,-1,-1,0,242.3,363.5)"
   id="text198"><tspan
     style="fill:#000000;fill-opacity:1;fill-rule:nonzero;stroke:none;font-family:DejaVu Serif;font-variant:normal;font-weight:normal;font-size:18;writing-mode:lr;-inkscape-font-specification:DejaVuSerif"
     x="0"
     y="0"
     id="tspan200">ì</tspan></text>

<g
   id="g202"><path
     d="m 300.5,430.6 21.8,0"
     style="fill:none;stroke:#000000;stroke-opacity:1;stroke-width:2.8;stroke-linecap:butt;stroke-linejoin:miter;stroke-miterlimit:10;stroke-dasharray:none"
     id="path204" /></g><path
   d="m 334.5,430.6 -12.7,4.2 0,-8.5 12.7,4.3 z"
   style="fill:#000000;fill-opacity:1;fill-rule:evenodd;stroke:none"
   id="path206" /><text
   transform="matrix(1,0,0,-1,304.2,434.8)"
   id="text208"><tspan
     style="fill:#000000;fill-opacity:1;fill-rule:nonzero;stroke:none;font-family:DejaVu Serif;font-variant:normal;font-weight:normal;font-size:18;writing-mode:lr;-inkscape-font-specification:DejaVuSerif"
     x="0 15.696"
     y="0"
     sodipodi:role="line"
     id="tspan210">No</tspan></text>

<g
   id="g212"><path
     d="m 558.4,331.4 0,58.7"
     style="fill:none;stroke:#000000;stroke-opacity:1;stroke-width:2.8;stroke-linecap:butt;stroke-linejoin:miter;stroke-miterlimit:10;stroke-dasharray:none"
     id="path214" /></g><path
   d="m 558.4,402.2 -4.2,-12.7 8.5,0 -4.3,12.7 z"
   style="fill:#000000;fill-opacity:1;fill-rule:evenodd;stroke:none"
   id="path216" /><g
   id="g218"><path
     d="m 462.6,430.6 18.4,0"
     style="fill:none;stroke:#000000;stroke-opacity:1;stroke-width:2.8;stroke-linecap:butt;stroke-linejoin:miter;stroke-miterlimit:10;stroke-dasharray:none"
     id="path220" /></g><path
   d="m 493.2,430.6 -12.7,4.2 0,-8.5 12.7,4.3 z"
   style="fill:#000000;fill-opacity:1;fill-rule:evenodd;stroke:none"
   id="path222" /><g
   id="g224"><path
     d="m 555.6,458.9 c 35.3,0 62.4,-12.2 62.4,-28.3 0,-16.1 -27.1,-28.4 -62.4,-28.4 -35.4,0 -62.4,12.3 -62.4,28.4 0,16.1 27,28.3 62.4,28.3 z"
     style="fill:none;stroke:#000000;stroke-opacity:1;stroke-width:2.83;stroke-linecap:butt;stroke-linejoin:round;stroke-miterlimit:10;stroke-dasharray:none"
     id="path226" /></g><g
   id="g228"><path
     d="m 493.2,458.9 0,0 z"
     style="fill:none;stroke:#000000;stroke-opacity:1;stroke-width:2.83;stroke-linecap:butt;stroke-linejoin:round;stroke-miterlimit:10;stroke-dasharray:none"
     id="path230" /></g><g
   id="g232"><path
     d="m 618,402.2 0,0 z"
     style="fill:none;stroke:#000000;stroke-opacity:1;stroke-width:2.83;stroke-linecap:butt;stroke-linejoin:round;stroke-miterlimit:10;stroke-dasharray:none"
     id="path234" /></g><g
   id="g236"><text
   transform="matrix(1,0,0,-1,516,434.3)"
   id="text238"><tspan
     style="fill:#000000;fill-opacity:1;fill-rule:nonzero;stroke:none;font-family:DejaVu Serif;font-variant:normal;font-weight:normal;font-size:16;writing-mode:lr;-inkscape-font-specification:DejaVuSerif"
     x="0 12.88 22.368 31.264 36.368 44.56 49.664 59.264 69.568"
     y="0"
     sodipodi:role="line"
     id="tspan240">Decisione</tspan></text>

</g><g
   id="g242"><text
   transform="matrix(1,0,0,-1,515.6,415.8)"
   id="text244"><tspan
     style="fill:#000000;fill-opacity:1;fill-rule:nonzero;stroke:none;font-family:DejaVu Serif;font-variant:normal;font-weight:normal;font-size:16;writing-mode:lr;-inkscape-font-specification:DejaVuSerif"
     x="0 10.192 15.296 20.384 28.064 37.568 47.952 54.256 59.44 69.744"
     y="0"
     sodipodi:role="line"
     id="tspan246">di routing</tspan></text>

</g><g
   id="g248"><path
     d="m 618,430.6 21.8,0"
     style="fill:none;stroke:#000000;stroke-opacity:1;stroke-width:2.8;stroke-linecap:butt;stroke-linejoin:miter;stroke-miterlimit:10;stroke-dasharray:none"
     id="path250" /></g><path
   d="m 652,430.6 -12.7,4.2 0,-8.5 12.7,4.3 z"
   style="fill:#000000;fill-opacity:1;fill-rule:evenodd;stroke:none"
   id="path252" /><g
   id="g254"><path
     d="m 399.7,56.4 -56.7,0 0,311.8 113.4,0 0,-311.8 -56.7,0 z"
     style="fill:none;stroke:#000000;stroke-opacity:1;stroke-width:2.83;stroke-linecap:butt;stroke-linejoin:round;stroke-miterlimit:10;stroke-dasharray:none"
     id="path256" /></g><g
   id="g258"><text
   transform="matrix(1,0,0,-1,368.5,216.5)"
   id="text260"><tspan
     style="fill:#000000;fill-opacity:1;fill-rule:nonzero;stroke:none;font-family:DejaVu Serif;font-variant:normal;font-weight:normal;font-size:18;writing-mode:lr;-inkscape-font-specification:DejaVuSerif"
     x="0 15.696 26.496 35.784 42.984 51.588"
     y="0"
     sodipodi:role="line"
     id="tspan262">Nostro</tspan></text>

</g><g
   id="g264"><text
   transform="matrix(1,0,0,-1,380.2,195.7)"
   id="text266"><tspan
     style="fill:#000000;fill-opacity:1;fill-rule:nonzero;stroke:none;font-family:DejaVu Serif;font-variant:normal;font-weight:normal;font-size:18;writing-mode:lr;-inkscape-font-specification:DejaVuSerif"
     x="0 11.682 22.482 31.68"
     y="0"
     sodipodi:role="line"
     id="tspan268">host</tspan></text>

</g><g
   id="g270"><path
     d="m 303.8,294.5 27,0"
     style="fill:none;stroke:#000000;stroke-opacity:1;stroke-width:2.8;stroke-linecap:butt;stroke-linejoin:miter;stroke-miterlimit:10;stroke-dasharray:none"
     id="path272" /></g><path
   d="m 343,294.5 -12.8,4.3 0,-8.5 12.8,4.2 z"
   style="fill:#000000;fill-opacity:1;fill-rule:evenodd;stroke:none"
   id="path274" /><g
   id="g276"><path
     d="m 456.4,294.5 24.7,0"
     style="fill:none;stroke:#000000;stroke-opacity:1;stroke-width:2.8;stroke-linecap:butt;stroke-linejoin:miter;stroke-miterlimit:10;stroke-dasharray:none"
     id="path278" /></g><path
   d="m 493.3,294.5 -12.7,4.3 0,-8.5 12.7,4.2 z"
   style="fill:#000000;fill-opacity:1;fill-rule:evenodd;stroke:none"
   id="path280" /><g
   id="g282"><path
     d="m 82.2,87.6 0,294"
     style="fill:none;stroke:#000000;stroke-opacity:1;stroke-width:2.8;stroke-linecap:butt;stroke-linejoin:miter;stroke-miterlimit:10;stroke-dasharray:none"
     id="path284" /></g><path
   d="M 82.2,393.7 78,381 l 8.5,0 -4.3,12.7 z"
   style="fill:#000000;fill-opacity:1;fill-rule:evenodd;stroke:none"
   id="path286" /><g
   id="g288"><path
     d="m 79.4,87.6 c 43.4,0 76.5,-16 76.5,-36.9 0,-20.8 -33.1,-36.8 -76.5,-36.8 -43.4,0 -76.6,16 -76.6,36.8 0,20.9 33.2,36.9 76.6,36.9 z"
     style="fill:none;stroke:#000000;stroke-opacity:1;stroke-width:2.83;stroke-linecap:butt;stroke-linejoin:round;stroke-miterlimit:10;stroke-dasharray:none"
     id="path290" /></g><g
   id="g292"><path
     d="m 2.8,87.6 0,0 z"
     style="fill:none;stroke:#000000;stroke-opacity:1;stroke-width:2.83;stroke-linecap:butt;stroke-linejoin:round;stroke-miterlimit:10;stroke-dasharray:none"
     id="path294" /></g><g
   id="g296"><path
     d="m 155.9,13.9 0,0 z"
     style="fill:none;stroke:#000000;stroke-opacity:1;stroke-width:2.83;stroke-linecap:butt;stroke-linejoin:round;stroke-miterlimit:10;stroke-dasharray:none"
     id="path298" /></g><g
   id="g300"><text
   transform="matrix(1,0,0,-1,12.9,44.5)"
   id="text302"><tspan
     style="fill:#000000;fill-opacity:1;fill-rule:nonzero;stroke:none;font-family:DejaVu Serif;font-variant:normal;font-weight:normal;font-size:18;writing-mode:lr;-inkscape-font-specification:DejaVuSerif"
     x="0 12.294 22.374 33.966 44.64 56.142 66.834 72.612 84.114 89.892 95.598 104.274 114.948 122.148"
     y="0"
     sodipodi:role="line"
     id="tspan304">Scheda di rete</tspan></text>

</g><g
   id="g306"><path
     d="M 717.2,396.6 717.2,97"
     style="fill:none;stroke:#000000;stroke-opacity:1;stroke-width:2.8;stroke-linecap:butt;stroke-linejoin:miter;stroke-miterlimit:10;stroke-dasharray:none"
     id="path308" /></g><path
   d="m 717.2,84.8 4.2,12.7 -8.5,0 4.3,-12.7 z"
   style="fill:#000000;fill-opacity:1;fill-rule:evenodd;stroke:none"
   id="path310" /><g
   id="g312"><path
     d="m 714.3,81.9 c 43.4,0 76.6,-15.9 76.6,-36.8 0,-20.9 -33.2,-36.9 -76.6,-36.9 -43.4,0 -76.5,16 -76.5,36.9 0,20.9 33.1,36.8 76.5,36.8 z"
     style="fill:none;stroke:#000000;stroke-opacity:1;stroke-width:2.83;stroke-linecap:butt;stroke-linejoin:round;stroke-miterlimit:10;stroke-dasharray:none"
     id="path314" /></g><g
   id="g316"><path
     d="m 637.8,81.9 0,0 z"
     style="fill:none;stroke:#000000;stroke-opacity:1;stroke-width:2.83;stroke-linecap:butt;stroke-linejoin:round;stroke-miterlimit:10;stroke-dasharray:none"
     id="path318" /></g><g
   id="g320"><path
     d="m 790.9,8.2 0,0 z"
     style="fill:none;stroke:#000000;stroke-opacity:1;stroke-width:2.83;stroke-linecap:butt;stroke-linejoin:round;stroke-miterlimit:10;stroke-dasharray:none"
     id="path322" /></g><g
   id="g324"><text
   transform="matrix(1,0,0,-1,647.8,38.8)"
   id="text326"><tspan
     style="fill:#000000;fill-opacity:1;fill-rule:nonzero;stroke:none;font-family:DejaVu Serif;font-variant:normal;font-weight:normal;font-size:18;writing-mode:lr;-inkscape-font-specification:DejaVuSerif"
     x="0 12.384 22.464 34.056 44.73 56.232 66.924 72.63 84.204 89.91 95.688 104.292 114.966 122.166"
     y="0"
     sodipodi:role="line"
     id="tspan328">Scheda di rete</tspan></text>

</g></g></g></g></svg>