<?xml version="1.0" encoding="utf-8"?>
<!-- Generator: Adobe Illustrator 16.0.0, SVG Export Plug-In . SVG Version: 6.00 Build 0)  -->
<!DOCTYPE svg PUBLIC "-//W3C//DTD SVG 1.1//EN" "http://www.w3.org/Graphics/SVG/1.1/DTD/svg11.dtd">
<svg version="1.1" id="Layer_1" xmlns="http://www.w3.org/2000/svg" xmlns:xlink="http://www.w3.org/1999/xlink" x="0px" y="0px"
	 width="487.833px" height="149.333px" viewBox="-137.167 0 487.833 149.333" enable-background="new -137.167 0 487.833 149.333"
	 xml:space="preserve">
<g id="Layer_3" display="none">
	<rect x="-183" y="-23.667" display="inline" fill="#FFFFFF" width="576.667" height="185.333"/>
</g>
<g id="Layer_1_1_">
	<g enable-background="new    ">
		<path fill="#FFFFFF" d="M28.051,20.58c0,3.304-1.032,5.83-3.097,7.579c-2.065,1.75-5.001,2.625-8.808,2.625h-2.792v10.918H6.845
			V11.006h9.805c3.723,0,6.554,0.802,8.493,2.404C27.082,15.013,28.051,17.402,28.051,20.58z M13.354,25.451h2.142
			c2.001,0,3.499-0.396,4.493-1.187c0.994-0.79,1.491-1.941,1.491-3.453c0-1.526-0.417-2.653-1.25-3.381
			c-0.833-0.728-2.138-1.092-3.916-1.092h-2.96V25.451z"/>
		<path fill="#FFFFFF" d="M56.72,26.312c0,5.082-1.26,8.986-3.779,11.717c-2.52,2.729-6.131,4.094-10.834,4.094
			s-8.314-1.365-10.834-4.094c-2.52-2.73-3.779-6.649-3.779-11.758c0-5.109,1.263-9.011,3.79-11.706
			c2.527-2.694,6.148-4.042,10.866-4.042c4.717,0,8.325,1.358,10.824,4.074C55.47,17.312,56.72,21.217,56.72,26.312z M34.317,26.312
			c0,3.43,0.651,6.013,1.953,7.748s3.247,2.604,5.837,2.604c5.193,0,7.79-3.45,7.79-10.352c0-6.914-2.583-10.371-7.748-10.371
			c-2.59,0-4.542,0.871-5.858,2.613C34.975,20.297,34.317,22.883,34.317,26.312z"/>
		<path fill="#FFFFFF" d="M58.093,41.702V11.006h6.509v25.321h12.451v5.375H58.093z"/>
		<path fill="#FFFFFF" d="M77.398,41.702V11.006h6.509v30.696H77.398z"/>
		<path fill="#FFFFFF" d="M98.487,41.702h-6.509V16.423h-8.335v-5.417h23.18v5.417h-8.335V41.702z"/>
		<path fill="#FFFFFF" d="M124.237,41.702h-17.679V11.006h17.679v5.333h-11.17v6.74h10.393v5.332h-10.393v7.916h11.17V41.702z"/>
		<path fill="#FFFFFF" d="M138.691,15.981c-2.45,0-4.346,0.921-5.69,2.762s-2.016,4.405-2.016,7.695
			c0,6.844,2.568,10.267,7.706,10.267c2.155,0,4.766-0.539,7.832-1.616v5.459c-2.52,1.049-5.333,1.574-8.44,1.574
			c-4.465,0-7.881-1.354-10.246-4.062c-2.366-2.709-3.548-6.597-3.548-11.664c0-3.191,0.581-5.986,1.743-8.388
			c1.162-2.4,2.831-4.241,5.008-5.521c2.176-1.281,4.727-1.921,7.653-1.921c2.981,0,5.977,0.721,8.986,2.162l-2.1,5.291
			c-1.148-0.546-2.303-1.021-3.464-1.428C140.952,16.185,139.811,15.981,138.691,15.981z"/>
		<path fill="#FFFFFF" d="M175.297,41.702h-8.272L153.671,18.48h-0.189c0.266,4.102,0.399,7.026,0.399,8.776v14.445h-5.816V11.006
			h8.209l13.333,22.991h0.147c-0.21-3.99-0.315-6.811-0.315-8.462V11.006h5.858V41.702z"/>
		<path fill="#FFFFFF" d="M178.036,41.702V11.006h6.508v30.696H178.036z"/>
		<path fill="#FFFFFF" d="M200.321,15.981c-2.449,0-4.346,0.921-5.689,2.762s-2.016,4.405-2.016,7.695
			c0,6.844,2.568,10.267,7.705,10.267c2.155,0,4.766-0.539,7.832-1.616v5.459c-2.52,1.049-5.334,1.574-8.441,1.574
			c-4.465,0-7.881-1.354-10.246-4.062c-2.365-2.709-3.548-6.597-3.548-11.664c0-3.191,0.581-5.986,1.743-8.388
			c1.161-2.4,2.83-4.241,5.008-5.521c2.176-1.281,4.727-1.921,7.652-1.921c2.981,0,5.977,0.721,8.986,2.162l-2.1,5.291
			c-1.148-0.546-2.303-1.021-3.465-1.428S201.44,15.981,200.321,15.981z"/>
		<path fill="#FFFFFF" d="M237.557,26.312c0,5.082-1.26,8.986-3.779,11.717c-2.52,2.729-6.131,4.094-10.834,4.094
			s-8.314-1.365-10.834-4.094c-2.52-2.73-3.779-6.649-3.779-11.758c0-5.109,1.263-9.011,3.79-11.706
			c2.526-2.694,6.148-4.042,10.865-4.042s8.324,1.358,10.824,4.074C236.308,17.312,237.557,21.217,237.557,26.312z M215.153,26.312
			c0,3.43,0.651,6.013,1.953,7.748s3.247,2.604,5.837,2.604c5.192,0,7.79-3.45,7.79-10.352c0-6.914-2.583-10.371-7.748-10.371
			c-2.59,0-4.543,0.871-5.857,2.613C215.812,20.297,215.153,22.883,215.153,26.312z"/>
		<path fill="#FFFFFF" d="M272.974,26.312c0,5.082-1.26,8.986-3.779,11.717c-2.52,2.729-6.131,4.094-10.834,4.094
			s-8.314-1.365-10.834-4.094c-2.52-2.73-3.779-6.649-3.779-11.758c0-5.109,1.264-9.011,3.79-11.706
			c2.526-2.694,6.148-4.042,10.866-4.042c4.717,0,8.324,1.358,10.823,4.074C271.725,17.312,272.974,21.217,272.974,26.312z
			 M250.571,26.312c0,3.43,0.65,6.013,1.953,7.748c1.301,1.735,3.246,2.604,5.836,2.604c5.193,0,7.79-3.45,7.79-10.352
			c0-6.914-2.583-10.371-7.747-10.371c-2.59,0-4.543,0.871-5.858,2.613C251.229,20.297,250.571,22.883,250.571,26.312z"/>
		<path fill="#FFFFFF" d="M295.554,20.58c0,3.304-1.032,5.83-3.097,7.579c-2.065,1.75-5.001,2.625-8.808,2.625h-2.793v10.918h-6.509
			V11.006h9.806c3.723,0,6.554,0.802,8.492,2.404C294.585,15.013,295.554,17.402,295.554,20.58z M280.856,25.451h2.142
			c2.001,0,3.499-0.396,4.493-1.187c0.994-0.79,1.49-1.941,1.49-3.453c0-1.526-0.416-2.653-1.249-3.381s-2.138-1.092-3.915-1.092
			h-2.961V25.451z"/>
		<path fill="#FFFFFF" d="M314.04,41.702h-17.68V11.006h17.68v5.333h-11.17v6.74h10.393v5.332H302.87v7.916h11.17V41.702z"/>
		<path fill="#FFFFFF" d="M342.688,41.702h-8.272L321.062,18.48h-0.189c0.266,4.102,0.399,7.026,0.399,8.776v14.445h-5.815V11.006
			h8.209l13.332,22.991h0.147c-0.21-3.99-0.315-6.811-0.315-8.462V11.006h5.858V41.702z"/>
	</g>
	<g enable-background="new    ">
		<path fill="#FFFFFF" d="M34.723,105.211l-1.582-5.516h-0.617c-1.26,2.006-3.047,3.555-5.362,4.646
			c-2.314,1.094-4.951,1.641-7.908,1.641c-5.066,0-8.885-1.357-11.457-4.07C5.226,99.2,3.94,95.297,3.94,90.206V62.085h11.765
			v25.189c0,3.111,0.553,5.445,1.659,7.002c1.105,1.555,2.867,2.334,5.285,2.334c3.292,0,5.67-1.1,7.136-3.299
			s2.199-5.844,2.199-10.936V62.085h11.765v43.126H34.723z"/>
		<path fill="#FFFFFF" d="M90.924,105.211H79.159V80.022c0-3.111-0.553-5.445-1.659-7.001c-1.106-1.556-2.868-2.333-5.285-2.333
			c-3.292,0-5.67,1.099-7.136,3.298c-1.466,2.199-2.199,5.843-2.199,10.935v20.291H51.116V62.085h8.988l1.582,5.517h0.656
			c1.312-2.084,3.118-3.658,5.419-4.726c2.301-1.067,4.918-1.601,7.85-1.601c5.015,0,8.82,1.356,11.418,4.069
			c2.597,2.713,3.896,6.629,3.896,11.746V105.211z"/>
		<path fill="#FFFFFF" d="M97.558,50.938c0-3.832,2.134-5.748,6.403-5.748c4.269,0,6.403,1.916,6.403,5.748
			c0,1.826-0.534,3.246-1.601,4.262c-1.067,1.017-2.668,1.523-4.802,1.523C99.692,56.723,97.558,54.795,97.558,50.938z
			 M109.825,105.211H98.06V62.085h11.765V105.211z"/>
		<path fill="#FFFFFF" d="M126.025,83.186l-13.887-21.101h13.347l8.371,13.732l8.448-13.732h13.347l-14.041,21.101l14.697,22.025
			H142.92l-9.065-14.773l-9.104,14.773h-13.347L126.025,83.186z"/>
		<path fill="#FFFFFF" d="M174.356,105.211V48.815h11.958v46.521h22.874v9.875H174.356z"/>
		<path fill="#FFFFFF" d="M248.534,105.211l-4.089-13.424h-20.56l-4.09,13.424h-12.883l19.904-56.627h14.619l19.981,56.627H248.534z
			 M241.591,81.758c-3.78-12.164-5.908-19.042-6.385-20.637c-0.476-1.595-0.816-2.855-1.021-3.781
			c-0.849,3.293-3.279,11.432-7.291,24.418H241.591z"/>
		<path fill="#FFFFFF" d="M263.538,48.815h17.552c7.997,0,13.803,1.138,17.417,3.414c3.611,2.275,5.419,5.896,5.419,10.858
			c0,3.369-0.79,6.133-2.372,8.293s-3.684,3.46-6.307,3.897v0.385c3.574,0.799,6.152,2.289,7.734,4.475
			c1.58,2.188,2.371,5.092,2.371,8.719c0,5.143-1.857,9.154-5.574,12.035c-3.716,2.881-8.762,4.32-15.14,4.32h-21.101V48.815z
			 M275.497,71.15h6.943c3.24,0,5.586-0.502,7.039-1.505s2.18-2.661,2.18-4.976c0-2.16-0.791-3.71-2.373-4.648
			c-1.58-0.938-4.082-1.408-7.502-1.408h-6.287V71.15z M275.497,80.639v14.697h7.791c3.292,0,5.723-0.631,7.291-1.891
			s2.354-3.188,2.354-5.785c0-4.682-3.344-7.021-10.029-7.021H275.497z"/>
		<path fill="#FFFFFF" d="M344.929,89.549c0,5.092-1.832,9.104-5.496,12.035c-3.665,2.932-8.764,4.398-15.295,4.398
			c-6.018,0-11.341-1.131-15.97-3.395V91.479c3.806,1.697,7.026,2.893,9.663,3.588c2.635,0.693,5.047,1.041,7.232,1.041
			c2.623,0,4.635-0.502,6.037-1.504c1.4-1.004,2.102-2.494,2.102-4.475c0-1.105-0.309-2.09-0.926-2.951s-1.523-1.691-2.719-2.488
			c-1.196-0.797-3.633-2.07-7.311-3.818c-3.445-1.621-6.03-3.176-7.753-4.668c-1.724-1.492-3.099-3.227-4.128-5.208
			c-1.028-1.98-1.543-4.295-1.543-6.943c0-4.989,1.691-8.911,5.073-11.766c3.381-2.854,8.056-4.281,14.021-4.281
			c2.932,0,5.729,0.347,8.39,1.041c2.662,0.694,5.445,1.672,8.352,2.932l-3.857,9.297c-3.009-1.234-5.497-2.096-7.464-2.585
			c-1.968-0.488-3.903-0.733-5.806-0.733c-2.264,0-3.999,0.528-5.207,1.582c-1.209,1.055-1.813,2.43-1.813,4.127
			c0,1.056,0.244,1.975,0.733,2.759c0.488,0.784,1.266,1.543,2.333,2.275c1.067,0.733,3.594,2.052,7.58,3.954
			c5.271,2.52,8.885,5.047,10.839,7.581C343.952,82.768,344.929,85.874,344.929,89.549z"/>
	</g>
	<g enable-background="new    ">
		<path fill="#FFFFFF" d="M73.694,120.153c-2.507,0-4.48,0.801-5.92,2.406c-1.44,1.604-2.16,3.801-2.16,6.59
			c0,2.852,0.679,5.066,2.037,6.645c1.358,1.576,3.299,2.365,5.824,2.365c1.677,0,3.217-0.215,4.621-0.643v1.23
			c-1.322,0.465-2.972,0.697-4.949,0.697c-2.808,0-5.018-0.908-6.631-2.721c-1.613-1.814-2.42-4.348-2.42-7.602
			c0-2.033,0.385-3.824,1.155-5.373c0.77-1.551,1.877-2.746,3.322-3.59c1.444-0.842,3.124-1.264,5.038-1.264
			c1.95,0,3.696,0.363,5.236,1.094l-0.561,1.258C76.83,120.516,75.298,120.153,73.694,120.153z"/>
		<path fill="#FFFFFF" d="M92.515,131.719c0,2.424-0.588,4.318-1.764,5.68c-1.176,1.363-2.798,2.045-4.867,2.045
			c-1.304,0-2.452-0.314-3.445-0.943c-0.994-0.629-1.755-1.531-2.283-2.707c-0.529-1.176-0.793-2.535-0.793-4.074
			c0-2.426,0.588-4.314,1.764-5.668s2.789-2.029,4.84-2.029c2.042,0,3.644,0.686,4.806,2.057
			C91.934,127.452,92.515,129.331,92.515,131.719z M80.785,131.719c0,2.041,0.449,3.635,1.347,4.777
			c0.897,1.145,2.167,1.717,3.808,1.717s2.91-0.572,3.808-1.717c0.897-1.143,1.347-2.736,1.347-4.777
			c0-2.051-0.454-3.643-1.36-4.771c-0.907-1.131-2.181-1.695-3.821-1.695s-2.905,0.562-3.794,1.688
			C81.229,128.067,80.785,129.659,80.785,131.719z"/>
		<path fill="#FFFFFF" d="M113.208,139.17v-9.748c0-1.449-0.283-2.508-0.848-3.172c-0.565-0.666-1.431-0.998-2.598-0.998
			c-1.522,0-2.648,0.418-3.377,1.258c-0.729,0.838-1.094,2.154-1.094,3.951v8.709h-1.381v-10.158c0-2.508-1.148-3.76-3.445-3.76
			c-1.559,0-2.693,0.453-3.404,1.359c-0.711,0.908-1.066,2.359-1.066,4.355v8.203h-1.354v-14.861h1.121l0.287,2.037h0.082
			c0.41-0.738,0.993-1.311,1.75-1.717c0.756-0.404,1.59-0.607,2.502-0.607c2.342,0,3.846,0.879,4.512,2.639h0.055
			c0.483-0.848,1.132-1.5,1.948-1.955c0.815-0.457,1.743-0.684,2.782-0.684c1.622,0,2.839,0.432,3.65,1.299
			c0.811,0.865,1.217,2.242,1.217,4.129v9.721H113.208z"/>
		<path fill="#FFFFFF" d="M123.375,139.444c-2.16,0-3.844-0.666-5.052-1.996c-1.208-1.332-1.812-3.195-1.812-5.592
			c0-2.371,0.583-4.268,1.75-5.695c1.167-1.426,2.739-2.139,4.717-2.139c1.75,0,3.131,0.609,4.143,1.832
			c1.012,1.221,1.518,2.879,1.518,4.977v1.094h-10.705c0.018,2.041,0.494,3.6,1.429,4.676c0.934,1.074,2.271,1.613,4.013,1.613
			c0.848,0,1.593-0.061,2.235-0.178c0.643-0.119,1.456-0.375,2.44-0.766v1.23c-0.839,0.363-1.613,0.613-2.324,0.744
			C125.016,139.377,124.231,139.444,123.375,139.444z M122.979,125.225c-1.431,0-2.58,0.471-3.445,1.414
			c-0.866,0.943-1.372,2.305-1.518,4.082h9.188c0-1.723-0.374-3.07-1.121-4.041C125.334,125.709,124.3,125.225,122.979,125.225z"/>
		<path fill="#FFFFFF" d="M146.401,139.17v-9.639c0-1.496-0.314-2.582-0.943-3.262c-0.629-0.678-1.604-1.018-2.926-1.018
			c-1.777,0-3.079,0.449-3.903,1.346c-0.825,0.898-1.237,2.354-1.237,4.369v8.203h-1.354v-21.273h1.354v6.768l-0.068,1.9h0.096
			c0.556-0.895,1.258-1.541,2.105-1.941c0.848-0.402,1.9-0.602,3.158-0.602c3.372,0,5.059,1.809,5.059,5.428v9.721H146.401z"/>
		<path fill="#FFFFFF" d="M159.588,139.17l-0.342-2.352h-0.109c-0.748,0.957-1.516,1.633-2.304,2.029
			c-0.789,0.396-1.721,0.596-2.796,0.596c-1.458,0-2.593-0.375-3.404-1.121c-0.812-0.748-1.217-1.783-1.217-3.104
			c0-1.449,0.604-2.576,1.812-3.377c1.208-0.803,2.955-1.227,5.243-1.271l2.83-0.082v-0.984c0-1.414-0.287-2.48-0.861-3.199
			c-0.574-0.721-1.5-1.08-2.775-1.08c-1.376,0-2.803,0.383-4.279,1.148l-0.506-1.176c1.631-0.766,3.245-1.148,4.84-1.148
			c1.631,0,2.851,0.424,3.657,1.271s1.21,2.168,1.21,3.965v9.885H159.588z M154.12,138.213c1.586,0,2.837-0.453,3.753-1.361
			c0.916-0.906,1.374-2.166,1.374-3.779v-1.463l-2.598,0.109c-2.087,0.1-3.575,0.426-4.464,0.977
			c-0.889,0.553-1.333,1.41-1.333,2.578c0,0.93,0.285,1.652,0.854,2.166C152.276,137.956,153.081,138.213,154.12,138.213z"/>
		<path fill="#FFFFFF" d="M169.345,139.444c-2.124,0-3.787-0.67-4.99-2.01s-1.805-3.209-1.805-5.605c0-2.461,0.624-4.377,1.873-5.75
			c1.249-1.371,2.958-2.057,5.127-2.057c1.285,0,2.516,0.223,3.691,0.67l-0.369,1.203c-1.285-0.43-2.402-0.643-3.35-0.643
			c-1.823,0-3.204,0.562-4.143,1.688c-0.939,1.127-1.408,2.746-1.408,4.861c0,2.004,0.469,3.574,1.408,4.709
			c0.938,1.135,2.251,1.703,3.938,1.703c1.349,0,2.602-0.242,3.76-0.725v1.258C172.129,139.211,170.885,139.444,169.345,139.444z"/>
		<path fill="#FFFFFF" d="M176.052,132.649l7.588-8.34h1.641l-5.852,6.344l6.357,8.518h-1.627l-5.646-7.506l-2.434,2.215v5.291
			h-1.353v-21.273h1.353v10.664l-0.096,4.088H176.052z"/>
		<path fill="#FFFFFF" d="M203.453,139.17l-3.254-9.939c-0.21-0.676-0.479-1.664-0.807-2.967h-0.082l-0.287,1.012l-0.615,1.982
			l-3.309,9.912h-1.34l-4.252-14.861h1.449l2.379,8.613c0.556,2.133,0.921,3.699,1.094,4.703h0.082
			c0.538-2.133,0.93-3.551,1.176-4.252l3.062-9.064h1.23l2.912,9.037c0.656,2.141,1.058,3.559,1.203,4.252h0.082
			c0.073-0.594,0.438-2.18,1.094-4.758l2.27-8.531h1.367l-4.033,14.861H203.453z"/>
		<path fill="#FFFFFF" d="M209.641,120.18c0-0.875,0.287-1.312,0.861-1.312c0.282,0,0.503,0.113,0.663,0.342
			c0.159,0.227,0.239,0.551,0.239,0.971c0,0.41-0.08,0.732-0.239,0.971c-0.16,0.236-0.381,0.355-0.663,0.355
			C209.928,121.506,209.641,121.063,209.641,120.18z M211.186,139.17h-1.354v-14.861h1.354V139.17z"/>
		<path fill="#FFFFFF" d="M218.099,138.241c0.855,0,1.604-0.074,2.242-0.219v1.094c-0.656,0.219-1.414,0.328-2.27,0.328
			c-1.312,0-2.281-0.352-2.906-1.053c-0.624-0.703-0.936-1.805-0.936-3.309v-9.598h-2.201v-0.793l2.201-0.615l0.684-3.363h0.697
			v3.596h4.361v1.176h-4.361v9.406c0,1.139,0.199,1.982,0.602,2.529C216.612,137.967,217.241,138.241,218.099,138.241z"/>
		<path fill="#FFFFFF" d="M231.929,139.17v-9.639c0-1.496-0.314-2.582-0.943-3.262c-0.629-0.678-1.604-1.018-2.926-1.018
			c-1.777,0-3.078,0.449-3.903,1.346c-0.825,0.898-1.237,2.354-1.237,4.369v8.203h-1.354v-21.273h1.354v6.768l-0.068,1.9h0.096
			c0.556-0.895,1.258-1.541,2.105-1.941c0.848-0.402,1.9-0.602,3.158-0.602c3.372,0,5.059,1.809,5.059,5.428v9.721H231.929z"/>
		<path fill="#FFFFFF" d="M242.554,124.309v9.625c0,1.494,0.314,2.582,0.943,3.26c0.629,0.68,1.604,1.02,2.926,1.02
			c1.769,0,3.07-0.447,3.904-1.34c0.834-0.895,1.25-2.348,1.25-4.361v-8.203h1.34v14.861h-1.148l-0.246-2.051h-0.082
			c-0.966,1.549-2.684,2.324-5.154,2.324c-3.381,0-5.072-1.811-5.072-5.428v-9.707H242.554z"/>
		<path fill="#FFFFFF" d="M265.12,135.301c0,1.33-0.506,2.354-1.518,3.068c-1.012,0.717-2.447,1.074-4.307,1.074
			c-1.986,0-3.563-0.307-4.73-0.916v-1.463c1.495,0.746,3.072,1.121,4.73,1.121c1.468,0,2.582-0.244,3.344-0.732
			c0.76-0.486,1.141-1.137,1.141-1.947c0-0.748-0.303-1.377-0.908-1.887c-0.607-0.512-1.603-1.012-2.988-1.504
			c-1.485-0.539-2.529-1-3.131-1.389c-0.602-0.387-1.055-0.824-1.359-1.312c-0.307-0.486-0.459-1.082-0.459-1.783
			c0-1.113,0.467-1.992,1.402-2.639c0.934-0.648,2.239-0.971,3.916-0.971c1.604,0,3.127,0.301,4.566,0.902l-0.506,1.23
			c-1.458-0.602-2.812-0.902-4.061-0.902c-1.212,0-2.174,0.199-2.885,0.602c-0.711,0.4-1.066,0.957-1.066,1.668
			c0,0.773,0.275,1.395,0.828,1.859c0.551,0.465,1.629,0.984,3.232,1.559c1.34,0.482,2.315,0.918,2.926,1.305
			c0.611,0.389,1.068,0.828,1.375,1.32C264.968,134.057,265.12,134.635,265.12,135.301z"/>
		<path fill="#FFFFFF" d="M266.688,138.104c0-0.895,0.364-1.34,1.094-1.34c0.747,0,1.121,0.445,1.121,1.34
			c0,0.893-0.374,1.34-1.121,1.34C267.052,139.444,266.688,138.997,266.688,138.104z"/>
	</g>
</g>
<g id="Layer_2">
</g>
<g id="Layer_4">
</g>
<g id="Layer_4_1_">
	<g id="layer4">
		<path id="path3091-4" fill="#FFFFFF" d="M-83.217,46.983c-1.002,1.146-1.225,5.042-0.11,7.009c-1.447,1.93-2.729,3.711-3.73,5.685
			c-1.67,3.243-2.302,6.879-3.105,10.386c-0.066,0.278-0.179,0.557-0.289,0.821c-1.951,3.632-3.842,7.307-5.73,10.98
			c-1.338,2.84-2.395,4.787-2.844,7.899c-0.122,0.946-4.229,22.995,7.739,32.037c9.129,6.904,18.746,8.866,31.198,5.888
			c21.389-5.128,20.482-33.563,19.246-41.263c-0.211-2.06-1.771-5.729-2.388-7.733c-1.03-3.119-2.163-6.271-4.2-8.853
			c-0.635-0.891-1.638-1.448-2.305-2.282c-0.253-2.283-0.893-4.511-1.561-6.737c-1.893-5.734-2.949-11.356-5.479-13.694
			C-66.545,38.944-76.982,40.951-83.217,46.983z"/>
	</g>
	<g id="g3031" transform="matrix(1.25,0,0,-1.25,0,625)">
		<g id="g3097">
			<g>
				<g>
					<g>
						<defs>
							<path id="SVGID_1_" d="M-56.162,494.426c-1.905,0.002-3.864-0.336-5.67-0.975c-1.579-0.516-3.043-1.375-4.255-2.478
								c-0.475-0.411-0.887-0.888-1.242-1.38c-0.401-0.58-0.713-1.211-0.979-1.879c-0.189-0.681-0.268-1.38-0.298-2.092
								c0.03-0.66,0.164-1.286,0.388-1.907c0.223-0.709,0.623-1.342,1.069-1.96c0.579-0.847,1.47-1.424,2.175-2.185
								c0.496-0.087,0.986-0.176,1.476-0.275c0.706-0.257,1.291-0.745,1.648-1.38c2.316-0.04,4.677,0.074,7.015-0.165
								c0.416,0.617,0.891,1.12,1.516,1.555c1.536,1.146,3.827,1.024,5.43,0.039c0.981,0.718,2.05,1.425,2.763,2.449
								c0.445,0.59,0.8,1.246,1.07,1.958c0.178,0.585,0.27,1.209,0.355,1.839c-0.009,0.698-0.091,1.37-0.269,2.032
								c-0.266,0.68-0.62,1.351-1.002,1.963c-0.399,0.494-0.78,0.975-1.223,1.383c-1.248,1.105-2.67,1.961-4.273,2.463
								C-52.295,494.09-54.212,494.423-56.162,494.426L-56.162,494.426z"/>
						</defs>
						<clipPath id="SVGID_2_">
							<use xlink:href="#SVGID_1_"  overflow="visible"/>
						</clipPath>
						<g id="g3099" clip-path="url(#SVGID_2_)">
							<g id="g3105">
							</g>
						</g>
					</g>
				</g>
			</g>
		</g>
		<path id="path4142" fill="#010101" stroke="#FFFFFF" stroke-width="0.9224" stroke-linecap="round" stroke-linejoin="round" d="
			M-37.653,481.617c0.873-3.335,0.456-6.855,0.891-10.281c0.313-2.67,0.27-5.431,1.22-7.925c0.561-1.603,1.72-2.939,2.611-4.364
			c2.759-3.919,5.609-7.749,8.366-11.713c1.429-2.204,2.677-4.543,3.918-6.902c0.934-2.094,2.051-4.166,2.498-6.458
			c1.155-4.042,0.684-8.139-0.091-12.234c-0.534-1.884-1.961-4.463-3.298-4.946c-4.003,0.552-5.428,1.958-6.2,5.802
			c0.772,2.516-0.12,7.106-0.653,9.966c-1.959,5.723-2.866,7.735-5.52,11.119c3.212-5.211,5.255-8.951,6.23-16.341
			c0.094-2.091,0.272-2.938-0.262-4.766c-1.959-0.403-3.832-1.776-4.988-2.933c0.713,8.23,0.178,11.929-1.653,17.405
			c-1.109,3.251-2.798,6.012-5.203,8.907c-0.203,1.827-0.887,3.609-1.339,5.39c-0.564,1.96-2.33,4.187-3.291,6.012
			c-0.625,1.692-0.988,3.696-2.406,5.7c-3.415,4.878-12.578,4.408-17.388,1.158c-2.171-1.469-2.139-3.919-2.449-7.407
			c-1.158-1.811-2.182-2.969-2.984-4.548c-1.336-2.594-1.841-5.504-2.484-8.309c-0.053-0.223-0.142-0.445-0.231-0.657
			c-1.561-2.905-3.073-5.845-4.584-8.784c-1.784-4.005-2.591-9.75-2.852-13.98c-1.384,1.247-1.828,2.18-2.089,3.566
			c-0.582,3.737,0.308,7.902,1.632,11.566c0.772,2.166,1.929,4.194,3.664,5.887c-2.002-2.19-3.159-4.009-4.006-6.368
			c-1.248-3.517-2.111-7.08-1.425-11.044c0.42-2.538,1.608-3.47,3.975-5.336c3.238-2.539,6.532-5.005,9.738-7.58
			c1.069-0.978,2.093-2.091,2.494-3.514c0.267-0.791,0-1.598-0.294-2.319c-0.775-1.386-3.135-2.65-5.629-2.298
			c-7.527,0.608-16.505,12.502-16.691,19.839c-0.007,7.062,2.756,13.779,6.898,19.421c2.92,4.098,5.92,8.284,8.68,12.026
			c0.578,0.846,1.202,1.647,1.557,2.59c0.845,1.996,0.891,4.179,1.026,6.316c0.398,5.082-0.938,10.282-0.294,15.356
			c0.898,8.162,4.3,13.543,11.738,15.104C-50.089,495.582-40.145,491.453-37.653,481.617L-37.653,481.617z"/>
		<path id="path3091" fill="#010101" stroke="#FFFFFF" stroke-width="0.9224" stroke-linecap="round" stroke-linejoin="round" d="
			M-36.381,405.704c0.066-0.976,3.186-6.421,3.002-7.386c-3.205-3.927-26.805-5.646-36.713-2.52
			c-0.266,0.539-2.45,4.928-1.902,6.277C-66.529,395.905-41.036,398.049-36.381,405.704z"/>
	</g>
	<g id="layer3">
		<path id="path3133" fill="#FFFFFF" d="M-66.819,25.361c1.946-1.386,4.618-1.27,6.62-0.046c2.336,1.719,3.562,4.732,3.564,7.621
			c0.027,2.17-0.184,4.456-1.519,6.256c-5.054,2.423-5.724-0.357-10.813-3.752c-1.12-2.612-0.806-5.677,0.39-8.19
			C-68.102,26.493-67.543,25.87-66.819,25.361L-66.819,25.361z"/>
		<path id="path3145" fill="#010101" d="M-64.233,29.039c1.919-0.773,4.144,0.998,4.144,3.01c0.057,2.146,0.225,4.838-1.779,6.174
			c-1.334-0.424-2.672-1.001-3.895-1.557c-0.474-1.671-0.559-3.453-0.252-5.179C-65.877,30.479-65.318,29.375-64.233,29.039
			L-64.233,29.039z"/>
		<path id="path3137" fill="#FFFFFF" d="M-84.206,27.87c1.045-1.609,2.492-3.061,5.164-2.499c3.229,1.385,3.859,7.557,3.118,9.881
			c-2.227,2.771-2.004,4.246-6.18,5.028C-85,37-85.722,30.376-84.206,27.87L-84.206,27.87z"/>
		<path id="path3167" fill="#010101" d="M-82.771,31.21c0.445-1.923,3.437-2.26,4.358-0.558c0.931,1.607,1.208,3.506,1.042,5.339
			c-1.337,0.449-1.895,1.562-3.039,2.333C-82.827,37-83.272,33.547-82.771,31.21z"/>
	</g>
	<g id="layer5">
		<g id="g3213" transform="matrix(1.3107652,0,0,-1.3311137,-12.730576,653.40936)">
			<g>
				<g>
					<g>
						<defs>
							<path id="SVGID_3_" d="M-46.258,464.545c-0.63-0.001-1.232-0.085-1.822-0.295c-1.957-0.628-3.486-2.133-4.972-3.513
								c-0.637-0.627-1.315-1.254-1.718-2.048c-0.278-0.544-0.066-1.15,0.092-1.714c0.606-0.014,1.185-0.143,1.754-0.376
								c0.892-0.795,1.826-1.715,3.1-1.721c3.03-0.161,6.304,0.09,8.895,1.804c1.66,1.046,3.189,2.341,5.139,2.844
								c0.086-0.21,0.17-0.409,0.301-0.587c-0.98-0.417-2-0.835-2.848-1.504c-1.103-0.558-1.994-1.405-3.093-1.924
								c-1.733-0.961-3.68-1.212-5.591-1.4c-1.487-0.063-3.016-0.189-4.375,0.355c-1.062,0.401-1.656,1.673-2.875,1.685
								c0.456-0.974,1.686-1.142,2.238-2.04c1.189-1.653,2.845-2.949,4.799-3.493c1.572-0.377,3.139,0.167,4.651,0.543
								c2.073,0.711,3.397,2.635,5.352,3.596c1.271,0.628,2.957,0.92,3.397,2.426c0.17,0.96,0.253,1.883,0.422,2.809
								c-0.603,1.247-2.208,1.125-3.309,1.538c-1.785,0.418-3.397,1.422-5.178,1.883c-0.343,0.377-0.887,0.458-1.363,0.626
								C-44.216,464.371-45.239,464.583-46.258,464.545L-46.258,464.545z"/>
						</defs>
						<clipPath id="SVGID_4_">
							<use xlink:href="#SVGID_3_"  overflow="visible"/>
						</clipPath>
						<g id="g3215" clip-path="url(#SVGID_4_)">
							<g id="g3221">
							</g>
						</g>
					</g>
				</g>
			</g>
		</g>
		<g id="g5887">
			<path id="path3371-6" fill="#FFC60A" stroke="#CC7E29" stroke-width="1.153" stroke-linecap="round" stroke-linejoin="round" d="
				M-105.756,99.283c-1.445-0.049-2.943,0.729-3.532,2.062c-0.86,1.452-1.807,2.885-2.889,4.169
				c-0.875,1.001-2.205,1.776-3.59,1.619c-2.121-0.224-4.404-0.502-6.413,0.437c-0.94,0.334-1.17,1.457-1.27,2.336
				c0.101,1.789,0.325,3.568,0.439,5.354c0.124,2.05,0.288,4.098,0.443,6.125c0.159,1.711-0.778,3.2-1.156,4.799l-0.114,0.038
				c-0.427,1.42-1.125,2.792-1.21,4.292c-0.021,0.842,0.654,1.527,1.447,1.667c5.995,1.376,11.497,2.654,16.951,4.29
				c1.76,0.628,3.839,1.243,5.289,1.999c3.949,2.019,8.473,3.254,12.911,2.567c4.009-0.932,7.295-6.133,6.345-9.442
				c-0.632-2.215-1.781-4.233-2.896-6.226c-1.158-1.821-2.271-3.672-3.553-5.391c-1.458-2.201-2.96-4.387-4.463-6.558
				c-1.562-2.406-3.116-4.853-4.728-7.245C-99.749,103.531-102.471,99.343-105.756,99.283L-105.756,99.283z"/>
			<path id="path3053-6" fill="#FFC60A" stroke="#CC7E29" stroke-width="1.153" stroke-linecap="round" stroke-linejoin="round" d="
				M-45.317,100.956c-0.317,0.002-0.636,0.058-0.97,0.173c-1.111,0.722-1.227,2.167-1.447,3.334
				c-0.713,5.01,0.979,10.906,0.113,15.32c-0.338,1.981-0.781,3.938-1.229,5.899c-0.555,2.857-1.449,5.679-1.209,8.612
				c0.75,5.079,3.658,7.082,7.033,7.877c3.748,0.879,8.18-1.366,10.648-4.246c4.121-3.799,8.121-7.109,12.914-9.125
				c2.447-1.157,5.344-1.741,7.029-3.973c0.981-1.241,1.604-2.488,1.313-4.071c-0.985-1.837-3.108-2.333-4.56-3.56
				c-1.89-1.561-3.562-3.447-4.793-5.557c-1.332-2.22-0.553-4.965-1.562-7.29c-0.546-1.063-1.775-1.174-2.881-1.114
				c-7.678,1.336-11.239,0.945-15.824-1.334C-41.967,101.244-43.945,100.906-45.317,100.956L-45.317,100.956z"/>
			<path id="path3259" fill="#FFC60A" stroke="#CC7E29" stroke-width="1.153" stroke-linecap="round" stroke-linejoin="round" d="
				M-73.363,35.047c-0.825,0.002-1.615,0.114-2.391,0.393c-2.564,0.836-4.568,2.84-6.518,4.676
				c-0.835,0.835-1.724,1.669-2.252,2.726c-0.364,0.724-0.086,1.67,0.12,2.394c1.687,1.137,0.375,0.613,1.909,1.19
				c1.837,1.093,2.895,1.495,4.676,1.816c3.952,0.176,8.117-0.055,11.495-2.288c2.188-1.439,4.344-3.223,6.71-3.834
				c0.188,0.277-0.032-0.104,0.081,0.167c-3.006,0.778-4.896,2.615-7.346,4.153c-2.227,1.246-4.595,1.691-7.101,1.94
				c-2.243,0.085-4.266,0.03-6.068-0.694c-1.392-0.502-3.062-1.559-4.33-2.449c0.602,1.313,2.717,2.506,3.439,3.701
				c1.559,2.2,3.729,3.926,6.291,4.649c2.06,0.501,4.176-0.055,6.097-0.723c2.646-0.891,4.564-3.117,7.121-4.343
				c1.645-0.89,3.771-1.669,4.344-3.673c0.225-1.278,0.332-2.506,0.557-3.739c-0.79-1.66-2.896-1.498-4.338-2.048
				c-3.23-0.893-5.764-2.324-8.573-3.34C-70.687,35.279-72.027,34.996-73.363,35.047L-73.363,35.047z"/>
			<path id="path5710" fill="#FFC60A" stroke="#CC7E29" stroke-width="1.153" stroke-linecap="round" stroke-linejoin="round" d="
				M-71.192,37.219c0.663,0.086,1.309,0.192,1.977,0.337c-0.095,1-1.336,0.499-1.804-0.002L-71.192,37.219z"/>
			<path id="path5708" fill="#FFC60A" stroke="#CC7E29" stroke-width="1.153" stroke-linecap="round" stroke-linejoin="round" d="
				M-77.256,38.054c0.496-0.334,1.054-0.56,1.609-0.721C-75.812,38.107-76.592,38.287-77.256,38.054z"/>
		</g>
	</g>
	<g id="layer6">
		<path id="path4140" fill="#010101" stroke="#FFFFFF" stroke-width="0.9224" stroke-linecap="round" stroke-linejoin="round" d="
			M-34.264,97.005c2.938-0.005,10.152,1.725,9.235,6.518c-0.553,1.549-1.552,2.887-2.778,3.946
			c-3.011,2.438-5.902,2.414-9.352,1.325c-2.895-1.113-4.76-2.448-4.773-5.059C-41.502,100.062-36.937,97.057-34.264,97.005
			L-34.264,97.005z"/>
	</g>
	<g id="layer1">
		<path id="path3393" fill="#E5E5E5" d="M-78.566,102.876c0.67,0.289,0.993,1.083,1.415,1.544c-0.424,0.381-0.842,0.768-1.263,1.152
			c-0.289-0.793-0.123-1.646-0.172-2.467L-78.566,102.876z"/>
		<path id="path3323" fill="#C0BEBF" d="M-72.236,95.268c1.914-0.456,3.809-1.151,5.805-1.118c2.113-0.086,4.168,0.479,6.2,0.971
			c0.606,0.164,1.181,0.426,1.744,0.701c-1.636-0.186-3.276-0.44-4.834-0.979c-1.503-0.546-3.138-0.348-4.696-0.216
			c-0.816,0.065-1.148,1.002-1.889,1.247c-1.717,0.602-3.542,0.976-5.131,1.876c-0.884,0.612-1.925,1.847-2.18,2.337
			c-0.09,0.347-0.197,1.387-0.137,2.087c-0.207-0.369-0.556-0.685-0.634-1.108c0.019-0.604,0.206-1.185,0.314-1.772
			C-76.721,97.093-74.392,96.006-72.236,95.268L-72.236,95.268z"/>
		<path id="path3327" fill="#DEDEDD" d="M-69.906,95.873c0.74-0.245,1.072-1.18,1.889-1.247c1.559-0.132,3.192-0.331,4.696,0.216
			c1.558,0.538,3.198,0.794,4.834,0.98c0.101,0.047,0.302,0.146,0.403,0.196c0.873,1.206,2.297,2.097,2.613,3.648
			c0.174,1.178-0.209,2.755-1.547,3.075c-0.924,0.447-1.859-0.149-2.746-0.398c-2.966-1.045-6.168-1.105-9.271-0.803
			c-2.578,0.019-4.869,1.316-7.309,1.959c-0.429-0.365-0.726-0.85-1.01-1.327c-0.167-1.017-0.065-1.733,0.1-2.104
			c0.396-0.914,1.334-1.707,2.218-2.318C-73.448,96.848-71.623,96.474-69.906,95.873L-69.906,95.873z"/>
		<path id="path3329" fill="#CBC4C3" d="M-58.084,96.021c1.576,0.719,2.604,2.157,3.498,3.568c0.636,1.209-0.295,2.443-0.985,3.4
			c-0.86,0.193-1.771,0.209-2.595,0.522c-1.203,0.832-2.213,1.974-3.575,2.563c-1.437,0.38-2.958,0.287-4.425,0.166
			c-0.758-0.045-1.413-0.444-2.002-0.885c0.754-0.531,1.705-0.481,2.58-0.601c-1.564-0.509-3.217-0.144-4.825-0.24
			c-0.898-0.083-1.674,0.435-2.501,0.673c-0.849-0.248-1.53-0.914-2.419-1.108c-0.351-0.169-0.685-0.366-1.009-0.581
			c2.439-0.643,4.73-1.94,7.309-1.959c3.104-0.307,6.307-0.243,9.271,0.803c0.885,0.249,1.822,0.848,2.746,0.398
			c1.338-0.32,1.721-1.897,1.547-3.075C-55.787,98.117-57.209,97.226-58.084,96.021z"/>
		<path id="path3331" fill="#E8E9E9" d="M-65.807,97.533c1.746-0.469,3.616,0.182,5.319-0.5c1.63,0.309,3.166,1.106,4.337,2.271
			c0.273,0.531-0.059,1.143-0.286,1.633c-0.483,0.66-1.42,0.543-2.138,0.478c-1.443,0.388-2.941-0.24-4.07-0.282
			c-2.072-0.038-4.143,0.011-6.215,0.021c-1.379-0.039-2.696,0.418-4.053,0.584c-1.069,0.273-2.255,0.994-3.315,0.283
			c1.634-1.766,4.044-2.63,6.342-3.184C-68.414,98.752-67.245,97.75-65.807,97.533L-65.807,97.533z"/>
		<path id="path3391" fill="#746D6D" d="M-78.943,102.314c0.089,0.144,0.291,0.383,0.376,0.523l-0.028,0.203
			c-0.082,0.056-0.146,0.199-0.228,0.433c0.234,2.515-0.625,4.627,0.435,6.843c0.405,0.75,0.821,1.641,1.701,1.926
			c2.868,1.44,5.961,2.629,9.217,2.719c2.453,0.396,5,0.133,7.371-0.576c1.975-0.859,4.137-1.748,5.402-3.576
			c0.875-1.264,0.93-2.834,1.207-4.285l0.186,0.232c0.119,2.053,0.125,4.124-0.279,6.146c0.023-0.229,0.07-0.686,0.096-0.916
			c-3.061,2.22-6.729,3.545-10.482,3.967c-2.83,0.031-5.735,0.14-8.441-0.812c-1.403-0.442-2.708-1.125-4.099-1.602
			c-1.014-0.312-1.575-1.269-2.312-1.942c-0.031,0.139-0.093,0.413-0.124,0.553C-79.26,108.886-79.312,105.572-78.943,102.314z"/>
		<path id="path3403" fill="#BBB1AF" d="M-53.844,103.744c0.016,0.096,0.043,0.285,0.059,0.377c0.035,0.914-0.066,1.828-0.271,2.719
			c-0.875-0.062-1.525,0.365-1.742,1.04c-0.498,1.293-0.15,1.894-1.945,1.292c-2.116,0.797-4.407,1.158-6.363,2.33
			c-1.365,0.301-2.801,0.609-4.195,0.281c-1.145-0.239-2.179-0.855-3.343-1.031c-0.545-0.125-1.152-0.114-1.638-0.407
			c-0.64-0.61-1.125-1.481-2.046-1.717c-0.372-0.08-0.901,0.246-1.129-0.173c-0.312-0.76-0.502-1.565-0.804-2.33
			c-0.283,0.119-0.565,0.238-0.847,0.357c-0.104-0.328-0.208-0.65-0.311-0.978c0.427-0.388,0.851-0.771,1.279-1.153
			c0.197,0.189,0.398,0.372,0.612,0.555c0.839,0.668,1.765,1.242,2.776,1.621c2.965,1.129,6.195,1.646,9.367,1.356
			c1.758-0.153,3.5-0.581,5.119-1.274c1.266-0.48,2.424-1.193,3.473-2.035C-54.311,105.96-54.035,105.17-53.844,103.744z"/>
		<path id="path3395" fill="#E1E1E2" d="M-55.795,104.574c0.607-0.686,1.103-1.479,1.834-2.045c0.041,0.403,0.082,0.81,0.117,1.215
			c-0.097,0.789-0.176,1.33-0.252,2.121C-54.699,105.4-55.166,105.094-55.795,104.574z"/>
		<path id="path3333" fill="#878484" d="M-77.706,102.703c-0.818-1.004-0.581-2.371,0.033-3.411c-0.109,0.59-0.297,1.17-0.314,1.772
			c0.225,0.611,0.467,0.807,0.714,1.148c0.494,0.934,1.044,1.341,1.938,1.868c0.163,0.319,0.534,0.586,0.702,0.905
			C-75.768,104.348-76.921,103.427-77.706,102.703L-77.706,102.703z"/>
		<path id="path3397" fill="#AB9F9E" d="M-78.831,103.445c0.033-0.291,0.107-0.403,0.273-0.574c0.049,0.82-0.156,1.844,0.135,2.638
			c0.103,0.326,0.208,0.646,0.311,0.978c0.281-0.121,0.563-0.238,0.847-0.357c0.302,0.765,0.492,1.57,0.804,2.33
			c0.228,0.419,0.757,0.093,1.128,0.173c0.922,0.233,1.407,1.104,2.047,1.717c0.485,0.292,1.093,0.282,1.638,0.407
			c1.164,0.176,2.198,0.792,3.342,1.031c1.396,0.328,2.832,0.02,4.196-0.281c3.935-2.171,6.47-1.773,8.367-4.055
			c1.503-0.998,2.036-0.879,1.956-3.325l0.279,0.227c0.059,0.72,0.08,1.447,0.019,2.173c-0.278,1.452-0.332,3.021-1.207,4.287
			c-1.267,1.827-3.429,2.715-5.403,3.575c-2.369,0.709-4.916,0.974-7.371,0.576c-3.254-0.087-6.348-1.277-9.216-2.718
			c-0.88-0.286-1.296-1.176-1.701-1.926C-79.447,108.1-78.765,105.828-78.831,103.445z"/>
		<path id="path3399" fill="#BAAFAD" d="M-58.168,103.513c0.824-0.314,1.732-0.33,2.596-0.523c-1.146,1.354-2.657,2.422-4.352,2.99
			c-2.502,0.979-5.231,1.274-7.906,1.149c-4.156-0.595-5.42-1.25-7.188-2.337c-0.083-0.342-0.341-0.605-0.438-0.766
			c0.725,0.295,4.443,0.455,5.043,0.494c1.607,0.096,3.261-0.271,4.825,0.238c-0.875,0.117-1.828,0.07-2.58,0.602
			c0.589,0.438,1.244,0.838,2.002,0.885c1.467,0.123,2.988,0.213,4.425-0.166C-60.381,105.486-59.37,104.345-58.168,103.513z"/>
		<path id="path3457" fill="#343130" d="M-78.826,111.597c0.597,0.52,1.842,1.727,2.886,2.102c2.452,1.029,5.016,1.959,7.709,2.207
			c3.759,0.09,5.312-0.037,8.154-0.729c2.354-0.684,4.603-1.749,6.587-3.188c0.12,2.354-3.251,2.787-4.688,3.427
			c-3.479,1.142-6.271,1.215-8.965,1.188c-3.469,0.094-7.557-0.88-10.952-2.971c-0.653-0.298-0.667-0.165-0.914-2.27
			L-78.826,111.597z"/>
		<path id="path3321" fill="#0E0C0C" d="M-71.604,94.178c2.525-0.846,5.134-0.894,7.861-0.571c3.272,0.53,6.938,1.467,8.94,4.311
			c0.42,0.755,0.875,1.541,0.918,2.423c0.25,1.271,0.424,3.136,0.727,7.976c0.013,2.719-0.354,5.25-0.713,6.344
			c-0.085-0.357,0.344-4.573,0.324-6.156c-0.121-1.975-0.229-4.043-0.416-5.973c-0.731,0.566-1.227,1.359-1.834,2.045
			c-2.834,2.416-7.191,3.381-10.021,3.438c-4.925-0.072,2.089-1.085,3.972-1.352c0.426-0.061-3.306,0.529-2.646,0.414
			c3.711-0.459,6.918-1.768,8.917-4.086c0.69-0.957,1.622-2.189,0.985-3.399c-0.893-1.411-1.92-2.851-3.498-3.567
			c-0.102-0.053-0.303-0.15-0.401-0.199c-0.563-0.276-1.138-0.537-1.744-0.701c-2.032-0.493-4.086-1.057-6.2-0.971
			c-1.996-0.033-3.892,0.664-5.805,1.117c-2.156,0.738-4.485,1.825-5.437,4.023c-0.614,1.041-0.853,2.406-0.035,3.41
			c3.717,2.839,4.531,3.824,10.785,4.443c2.133-0.039,2.58-0.07,4.32-0.375c1.188-0.207-1.271,1.149-4.378,1.207
			c-0.953,0.008-6.934-0.678-9.551-3.07c-1.019-0.803-1.778-1.563-2.413-2.594c0.046-1.244,0.105-2.355,0.7-3.396
			C-77.148,96.244-74.241,94.931-71.604,94.178L-71.604,94.178z"/>
		<path id="path3535" fill="#414141" d="M-76.087,135.916c0.848,2.15,2.67,3.949,4.938,4.527c2.159,0.633,4.438,0.84,6.681,0.717
			c2.597-0.19,5.153-1.256,6.969-3.15c0.318-0.303,0.84-1.085,0.718-0.202c-0.319,1.222-1.218,2.022-2.149,2.675
			c-2.601,1.672-5.812,1.948-8.828,1.799c-2.5-0.127-5.018-0.918-6.986-2.491C-75.697,138.902-76.252,137.396-76.087,135.916
			L-76.087,135.916z"/>
		<path id="path3539" fill="#141112" d="M-53.502,112.939c-2.149,1.854-4.862,2.476-7.545,3.139
			c-1.926,0.438-3.85,0.453-5.676,0.488c-3.6-0.041-6.167-0.629-8.236-1.442c-1.605-0.696-2.736-1.104-3.789-2.048
			c0.588,3.039,1.755,6.984,3.02,9.795c0.935,2.147,1.601,4.457,1.487,6.82c0.147,1.366-0.592,2.979,0.411,4.123
			c0.96,1.502,2.329,2.885,4.147,3.228c2.948,0.813,6.049,0.536,8.846-0.706c1.223-0.551,2.033-1.247,2.615-1.943
			c-0.014-0.843-0.142-1.267-0.201-1.771c-0.754-3.644,0.348-7.366,1.971-10.617c1.27-2.642,2.234-5.24,2.773-8.188
			C-53.635,113.566-53.539,113.187-53.502,112.939L-53.502,112.939z"/>
		<path id="path3206" fill="#414141" d="M-75.134,134.215c0.789,1.968,2.466,3.61,4.555,4.12c2.53,0.686,5.243,0.928,7.825,0.379
			c2.062-0.459,3.92-1.657,5.295-3.247c0.268,1.325-1.01,2.242-1.943,2.918c-2.436,1.433-5.365,1.731-8.139,1.572
			c-2.347-0.16-4.8-0.851-6.52-2.53C-74.837,136.576-75.407,135.386-75.134,134.215L-75.134,134.215z"/>
		<path id="path3208" fill="#414141" d="M-74.348,132.706c0.339,0.795,0.87,1.495,1.54,2.106c1.099,1.068,2.656,1.42,4.188,1.699
			c2.765,0.387,5.665,0.43,8.112-0.969c0.906-0.477,1.613-1.088,2.299-1.785c0.259,1.048-0.809,1.771-1.592,2.352
			c-1.941,1.151-4.357,1.457-6.623,1.474c-2.375-0.06-4.539-0.414-6.548-1.821C-73.833,135.089-74.649,133.881-74.348,132.706
			L-74.348,132.706z"/>
	</g>
</g>
</svg>
