<?xml version='1.0' encoding='UTF-8' standalone='no'?>
<!-- Created with Fritzing (http://www.fritzing.org/) -->
<svg xmlns:svg='http://www.w3.org/2000/svg' xmlns='http://www.w3.org/2000/svg' version='1.2' baseProfile='tiny' x='0in' y='0in' width='1.68965in' height='1.54457in' viewBox='0 0 121.655 111.209' >
<g partID='20230'><g transform='translate(43.3468,0)' ><g  id="breadboard">
 <rect  width="1.517" x="13.858" y="0.583" fill="#0E0E0E" height="0.647" id="0.1.0"/>
 <g  id="0.1.1">
  <polygon  fill="none" points="6.879,58.632,7.955,58.632,7.955,59.749,6.879,59.749" id="connector0pin"/>
  <polygon  fill="none" points="6.864,59.196,7.952,59.196,7.957,59.751,6.858,59.751" id="connector0terminal"/>
  <polygon  fill="none" points="14.054,58.636,15.176,58.636,15.17,59.749,14.059,59.749" id="connector1pin"/>
  <polygon  fill="none" points="14.042,59.196,15.188,59.196,15.198,59.751,14.033,59.751" id="connector1terminal"/>
  <polygon  fill="none" points="21.283,58.632,22.36,58.632,22.35,59.749,21.289,59.749" id="connector2pin"/>
  <polygon  fill="none" points="21.285,59.196,22.356,59.196,22.362,59.751,21.28,59.751" id="connector2terminal"/>
 </g>
 <g transform="matrix(1, 0, 0, 1, 100, 144.521)">
  <g  id="0.1.2">
   <g  id="0.1.2">
    <g  id="0.1.2.0">
     <g  id="0.1.2">
      <g transform="matrix(1, 0, 0, 1, 1388.89, 1968.75)">
       <g  id="0.1.2.0.0.0.0">
        <g  id="0.1.2.0.0.0">
         <g  id="0.1.2.0.0.0.0">
          <g  id="0.1.2.0">
           <g  id="0.1.2.0.0">
            <path  fill="#0A0A0A" id="0.1.2.0.0.0" d="M-1461.32,-2058.48c0,1.418,-1.154,2.566,-2.574,2.566l-20.82,0c-1.426,0,-2.578,-1.15,-2.578,-2.566l0,-28.688c0,-1.417,1.152,-2.569,2.578,-2.569l20.817,0c1.425,0,2.573,1.152,2.573,2.569l0,28.688L-1461.32,-2058.48z"/>
            <path  fill="#1A1A1A" id="0.1.2.0.0.1" d="M-1461.32,-2063.17c0,1.422,-1.152,2.572,-2.575,2.572l-20.807,0c-1.423,0,-2.576,-1.15,-2.576,-2.572l0,-28.75c0,-1.423,1.152,-2.574,2.576,-2.574l20.809,0c1.423,0,2.573,1.152,2.573,2.574L-1461.32,-2063.17L-1461.32,-2063.17z"/>
            <path  fill="#ABABAB" id="0.1.2.0.0.2" d="M-1461.32,-2064.29c0,1.422,-1.152,2.574,-2.575,2.574l-20.807,0c-1.423,0,-2.576,-1.15,-2.576,-2.574l0,-27.63c0,-1.423,1.152,-2.574,2.576,-2.574l20.809,0c1.423,0,2.573,1.154,2.573,2.574L-1461.32,-2064.29L-1461.32,-2064.29z"/>
            <path  fill="#CCCCCC" id="0.1.2.0.0.3" d="M-1487.28,-2091.74c0,-1.42,1.154,-2.574,2.578,-2.574l20.809,0c1.421,0,2.573,1.151,2.573,2.574l0,-0.173c0,-1.421,-1.152,-2.574,-2.573,-2.574l-20.809,0c-1.423,0,-2.578,1.15,-2.578,2.574L-1487.28,-2091.74z"/>
            <path  fill="#666666" id="0.1.2.0.0.4" d="M-1461.32,-2064.46c0,1.42,-1.15,2.572,-2.573,2.572l-20.809,0c-1.422,0,-2.576,-1.15,-2.576,-2.572l0,0.174c0,1.422,1.153,2.574,2.576,2.574l20.809,0c1.423,0,2.573,-1.15,2.573,-2.574L-1461.32,-2064.46z"/>
            <path  id="0.1.2.0.0.5" d="M-1463.98,-2066.3c0.980001,0,1.774,0.795,1.774,1.773c0,0.977,-0.794,1.77,-1.774,1.77c-0.977001,0,-1.771,-0.793,-1.771,-1.77C-1465.75,-2065.51,-1464.96,-2066.3,-1463.98,-2066.3z"/>
            <circle  cx="-1484.62" cy="-2064.53" r="1.771" id="0.1.2.0.0.6"/>
            <circle  cx="-1463.98" cy="-2091.82" r="1.772" id="0.1.2.0.0.7"/>
            <circle  cx="-1484.62" cy="-2091.82" r="1.772" id="0.1.2.0.0.8"/>
            <path  fill="#0D0D0D" id="0.1.2.0.0.9" d="M-1463.98,-2066.23c0.787,0,1.42,0.637,1.42,1.42s-0.633,1.418,-1.42,1.418c-0.78,0,-1.418,-0.635,-1.418,-1.418S-1464.76,-2066.23,-1463.98,-2066.23z"/>
            <circle  fill="#0D0D0D" cx="-1484.62" cy="-2064.82" r="1.419" id="0.1.2.0.0.10"/>
            <circle  fill="#0D0D0D" cx="-1463.98" cy="-2092.1" r="1.418" id="0.1.2.0.0.11"/>
            <circle  fill="#0D0D0D" cx="-1484.62" cy="-2092.1" r="1.418" id="0.1.2.0.0.12"/>
            <path  fill="#666666" id="0.1.2.0.0.13" d="M-1480.67,-2077.58c0.276,-3.271,3.046,-5.848,6.392,-5.848c3.347,0,6.117,2.576,6.392,5.848l0,-5.246c-0.277,-3.275,-3.096,-15.334,-6.44,-15.334c-3.347,0,-6.066,12.061,-6.343,15.334L-1480.67,-2077.58z"/>
            <circle  fill="#666666" cx="-1474.3" cy="-2077.87" r="6.81" id="0.1.2.0.0.14"/>
            <circle  cx="-1474.3" cy="-2077.87" r="6.551" id="0.1.2.0.0.15"/>
            <polygon  opacity="0.7" points="-1467.94,-2107.79,-1467.94,-2108.71,-1468.24,-2108.82,-1468.24,-2109.66,-1468.71,-2109.76,-1468.71,-2110.54,-1469.36,-2110.57,-1469.36,-2111.35,-1470.16,-2111.26,-1470.16,-2112.04,-1471.04,-2111.81,-1471.08,-2112.6,-1471.9,-2112.24,-1472.11,-2113.02,-1472.84,-2112.54,-1473.2,-2113.27,-1473.83,-2112.69,-1473.83,-2112.69,-1473.93,-2107.73,-1474.94,-2107.75,-1474.84,-2112.69,-1475.46,-2113.27,-1475.81,-2112.54,-1476.55,-2113.02,-1476.75,-2112.24,-1477.57,-2112.6,-1477.62,-2111.81,-1478.5,-2112.04,-1478.5,-2111.26,-1479.29,-2111.35,-1479.29,-2110.57,-1479.95,-2110.54,-1479.95,-2109.76,-1480.43,-2109.66,-1480.43,-2108.82,-1480.72,-2108.71,-1480.72,-2107.8,-1480.82,-2107.74,-1480.82,-2097.88,-1480.72,-2097.83,-1480.72,-2096.9,-1480.43,-2096.8,-1480.43,-2095.96,-1479.95,-2095.87,-1479.95,-2095.07,-1479.3,-2095.04,-1479.3,-2094.27,-1478.5,-2094.36,-1478.5,-2093.58,-1477.62,-2093.81,-1477.58,-2093.01,-1476.75,-2093.38,-1476.55,-2092.6,-1475.81,-2093.08,-1475.46,-2092.35,-1474.83,-2092.93,-1474.33,-2092.26,-1473.83,-2092.93,-1473.2,-2092.35,-1472.84,-2093.08,-1472.11,-2092.6,-1471.91,-2093.38,-1471.08,-2093.01,-1471.04,-2093.81,-1470.16,-2093.58,-1470.16,-2094.36,-1469.36,-2094.27,-1469.36,-2095.04,-1468.71,-2095.07,-1468.71,-2095.87,-1468.24,-2095.96,-1468.24,-2096.8,-1467.94,-2096.9,-1467.94,-2097.83,-1467.85,-2097.88,-1467.85,-2107.74" id="0.1.2.0.0.16"/>
            <path  fill="#060606" id="0.1.2.0.0.17" d="M-1467.94,-2097.11l0,-10.573l0.0930001,-0.053l-0.77,-0.433l0.677,-0.539l-0.851,-0.311l0.552,-0.64l-0.893,-0.176l0.418,-0.708l-0.919001,-0.042l0.272,-0.762l-0.915001,0.1l0.117,-0.792l-0.887,0.235l-0.042,-0.796l-0.819,0.363l-0.209,-0.781l-0.73,0.48l-0.358,-0.731l-0.627,0.583l-1.007,0l-0.625,-0.583l-0.354,0.731l-0.734,-0.48l-0.204,0.781l-0.817,-0.363l-0.047,0.796l-0.879,-0.235l0.115,0.792l-0.913001,-0.1l0.268,0.762l-0.919001,0.042l0.418,0.708l-0.898,0.176l0.554,0.64l-0.846,0.311l0.671,0.539l-0.773,0.433l0.149,0.083l0,0.859l-0.047,0.038l0.047,0.017l0,9.643l0,0.848l0,18.934c0.275,3.271,3.045,5.85,6.391,5.85c3.349,0,6.119,-2.578,6.392,-5.85l0,-19.796l-0.046,0L-1467.94,-2097.11z"/>
            <g  id="0.1.2.0.0.18">
             <g  id="0.1.2.0.0.18.0">
              <g  id="0.1.2.0.0.18.0.0">
               <g  id="0.1.2.0.0.18.0.0.0">
                <g  opacity="0.8" id="0.1.2.0.0.18.0.0.0.0">
                 <polygon  fill="#1A1A1A" points="-1470.16,-2112.04,-1470.16,-2102.8,-1470.27,-2102.01,-1470.27,-2111.25" id="0.1.2.0.0.18.0.0.0.0.0"/>
                </g>
                <g  opacity="0.8" id="0.1.2.0.0.18.0.0.0.1">
                 <polygon  fill="#1A1A1A" points="-1478.38,-2111.25,-1478.38,-2102.01,-1478.5,-2102.8,-1478.5,-2112.04" id="0.1.2.0.0.18.0.0.0.1.0"/>
                </g>
                <g  opacity="0.8" id="0.1.2.0.0.18.0.0.0.2">
                 <polygon  fill="#1A1A1A" points="-1479.03,-2110.59,-1479.03,-2101.35,-1479.29,-2102.11,-1479.29,-2111.35" id="0.1.2.0.0.18.0.0.0.2.0"/>
                </g>
                <g  opacity="0.8" id="0.1.2.0.0.18.0.0.0.3">
                 <polygon  fill="#1A1A1A" points="-1469.36,-2111.35,-1469.36,-2102.11,-1469.63,-2101.35,-1469.63,-2110.59" id="0.1.2.0.0.18.0.0.0.3.0"/>
                </g>
                <g  opacity="0.8" id="0.1.2.0.0.18.0.0.0.4">
                 <polygon  fill="#1A1A1A" points="-1479.53,-2109.84,-1479.53,-2100.6,-1479.95,-2101.31,-1479.95,-2110.54" id="0.1.2.0.0.18.0.0.0.4.0"/>
                </g>
                <g  opacity="0.8" id="0.1.2.0.0.18.0.0.0.5">
                 <polygon  fill="#1A1A1A" points="-1468.71,-2110.54,-1468.71,-2101.31,-1469.13,-2100.6,-1469.13,-2109.84" id="0.1.2.0.0.18.0.0.0.5.0"/>
                </g>
                <g  opacity="0.8" id="0.1.2.0.0.18.0.0.0.6">
                 <polygon  fill="#1A1A1A" points="-1468.24,-2109.66,-1468.24,-2100.42,-1468.79,-2099.43,-1468.79,-2109.02" id="0.1.2.0.0.18.0.0.0.6.0"/>
                </g>
                <g  opacity="0.8" id="0.1.2.0.0.18.0.0.0.7">
                 <polygon  fill="#1A1A1A" points="-1479.87,-2109.02,-1479.87,-2099.43,-1480.43,-2100.42,-1480.43,-2109.66" id="0.1.2.0.0.18.0.0.0.7.0"/>
                </g>
                <g  opacity="0.8" id="0.1.2.0.0.18.0.0.0.8">
                 <polygon  fill="#1A1A1A" points="-1467.94,-2108.71,-1467.94,-2099.12,-1468.61,-2098.58,-1468.61,-2108.17" id="0.1.2.0.0.18.0.0.0.8.0"/>
                </g>
                <g  opacity="0.8" id="0.1.2.0.0.18.0.0.0.9">
                 <polygon  fill="#1A1A1A" points="-1480.05,-2108.17,-1480.05,-2098.58,-1480.72,-2099.12,-1480.72,-2108.71" id="0.1.2.0.0.18.0.0.0.9.0"/>
                </g>
                <g  opacity="0.8" id="0.1.2.0.0.18.0.0.0.10">
                 <polygon  fill="#1A1A1A" points="-1467.85,-2107.74,-1467.85,-2098.15,-1468.61,-2097.71,-1468.61,-2107.31" id="0.1.2.0.0.18.0.0.0.10.0"/>
                </g>
                <g  opacity="0.8" id="0.1.2.0.0.18.0.0.0.11">
                 <polygon  fill="#1A1A1A" points="-1480.05,-2107.31,-1480.05,-2097.71,-1480.82,-2098.15,-1480.82,-2107.74" id="0.1.2.0.0.18.0.0.0.11.0"/>
                </g>
                <g  opacity="0.8" id="0.1.2.0.0.18.0.0.0.12">
                 <polygon  fill="#1A1A1A" points="-1479.87,-2106.45,-1479.87,-2096.86,-1480.72,-2097.17,-1480.72,-2106.76" id="0.1.2.0.0.18.0.0.0.12.0"/>
                </g>
                <g  opacity="0.8" id="0.1.2.0.0.18.0.0.0.13">
                 <polygon  fill="#1A1A1A" points="-1467.94,-2106.76,-1467.94,-2097.17,-1468.79,-2096.86,-1468.79,-2106.45" id="0.1.2.0.0.18.0.0.0.13.0"/>
                </g>
                <g  opacity="0.8" id="0.1.2.0.0.18.0.0.0.14">
                 <polygon  fill="#1A1A1A" points="-1468.24,-2105.82,-1468.24,-2096.22,-1469.13,-2096.04,-1469.13,-2105.64" id="0.1.2.0.0.18.0.0.0.14.0"/>
                </g>
                <g  opacity="0.8" id="0.1.2.0.0.18.0.0.0.15">
                 <polygon  fill="#1A1A1A" points="-1479.53,-2105.64,-1479.53,-2096.04,-1480.43,-2096.22,-1480.43,-2105.82" id="0.1.2.0.0.18.0.0.0.15.0"/>
                </g>
                <g  opacity="0.8" id="0.1.2.0.0.18.0.0.0.16">
                 <polygon  fill="#1A1A1A" points="-1479.03,-2104.89,-1479.03,-2095.29,-1479.95,-2095.33,-1479.95,-2104.93" id="0.1.2.0.0.18.0.0.0.16.0"/>
                </g>
                <g  opacity="0.8" id="0.1.2.0.0.18.0.0.0.17">
                 <polygon  fill="#1A1A1A" points="-1468.71,-2104.93,-1468.71,-2095.33,-1469.63,-2095.29,-1469.63,-2104.89" id="0.1.2.0.0.18.0.0.0.17.0"/>
                </g>
                <g  opacity="0.8" id="0.1.2.0.0.18.0.0.0.18">
                 <polygon  fill="#1A1A1A" points="-1478.38,-2104.22,-1478.38,-2094.63,-1479.3,-2094.53,-1479.3,-2104.12" id="0.1.2.0.0.18.0.0.0.18.0"/>
                </g>
                <g  opacity="0.8" id="0.1.2.0.0.18.0.0.0.19">
                 <polygon  fill="#1A1A1A" points="-1469.36,-2104.12,-1469.36,-2094.53,-1470.27,-2094.63,-1470.27,-2104.22" id="0.1.2.0.0.18.0.0.0.19.0"/>
                </g>
                <g  opacity="0.8" id="0.1.2.0.0.18.0.0.0.20">
                 <polygon  fill="#1A1A1A" points="-1470.16,-2103.43,-1470.16,-2093.84,-1471.04,-2094.07,-1471.04,-2103.67" id="0.1.2.0.0.18.0.0.0.20.0"/>
                </g>
                <g  opacity="0.8" id="0.1.2.0.0.18.0.0.0.21">
                 <polygon  fill="#1A1A1A" points="-1477.62,-2103.67,-1477.62,-2094.07,-1478.5,-2093.84,-1478.5,-2103.43" id="0.1.2.0.0.18.0.0.0.21.0"/>
                </g>
                <g  opacity="0.8" id="0.1.2.0.0.18.0.0.0.22">
                 <polygon  fill="#1A1A1A" points="-1477.58,-2102.87,-1477.58,-2093.28,-1477.62,-2094.07,-1477.62,-2103.67" id="0.1.2.0.0.18.0.0.0.22.0"/>
                </g>
                <g  opacity="0.8" id="0.1.2.0.0.18.0.0.0.23">
                 <polygon  fill="#1A1A1A" points="-1471.04,-2103.67,-1471.04,-2094.07,-1471.08,-2093.28,-1471.08,-2102.87" id="0.1.2.0.0.18.0.0.0.23.0"/>
                </g>
                <g  opacity="0.8" id="0.1.2.0.0.18.0.0.0.24">
                 <polygon  fill="#1A1A1A" points="-1476.75,-2103.23,-1476.75,-2093.64,-1477.58,-2093.28,-1477.58,-2102.87" id="0.1.2.0.0.18.0.0.0.24.0"/>
                </g>
                <g  opacity="0.8" id="0.1.2.0.0.18.0.0.0.25">
                 <polygon  fill="#1A1A1A" points="-1471.08,-2102.87,-1471.08,-2093.28,-1471.91,-2093.64,-1471.91,-2103.23" id="0.1.2.0.0.18.0.0.0.25.0"/>
                </g>
                <g  opacity="0.8" id="0.1.2.0.0.18.0.0.0.26">
                 <polygon  fill="#1A1A1A" points="-1476.55,-2102.46,-1476.55,-2092.86,-1476.75,-2093.64,-1476.75,-2103.23" id="0.1.2.0.0.18.0.0.0.26.0"/>
                </g>
                <g  opacity="0.8" id="0.1.2.0.0.18.0.0.0.27">
                 <polygon  fill="#1A1A1A" points="-1475.81,-2102.94,-1475.81,-2093.35,-1476.55,-2092.86,-1476.55,-2102.46" id="0.1.2.0.0.18.0.0.0.27.0"/>
                </g>
                <g  opacity="0.8" id="0.1.2.0.0.18.0.0.0.28">
                 <polygon  fill="#1A1A1A" points="-1472.11,-2102.46,-1472.11,-2092.86,-1472.84,-2093.35,-1472.84,-2102.94" id="0.1.2.0.0.18.0.0.0.28.0"/>
                </g>
                <g  opacity="0.8" id="0.1.2.0.0.18.0.0.0.29">
                 <polygon  fill="#1A1A1A" points="-1471.91,-2103.23,-1471.91,-2093.64,-1472.11,-2092.86,-1472.11,-2102.46" id="0.1.2.0.0.18.0.0.0.29.0"/>
                </g>
                <g  opacity="0.8" id="0.1.2.0.0.18.0.0.0.30">
                 <polygon  fill="#1A1A1A" points="-1474.83,-2102.79,-1474.83,-2093.2,-1475.46,-2092.61,-1475.46,-2102.2" id="0.1.2.0.0.18.0.0.0.30.0"/>
                </g>
                <g  opacity="0.8" id="0.1.2.0.0.18.0.0.0.31">
                 <polygon  fill="#1A1A1A" points="-1473.2,-2102.2,-1473.2,-2092.61,-1473.83,-2093.2,-1473.83,-2102.79" id="0.1.2.0.0.18.0.0.0.31.0"/>
                </g>
                <g  opacity="0.8" id="0.1.2.0.0.18.0.0.0.32">
                 <polygon  fill="#1A1A1A" points="-1472.84,-2102.94,-1472.84,-2093.35,-1473.2,-2092.61,-1473.2,-2102.2" id="0.1.2.0.0.18.0.0.0.32.0"/>
                </g>
                <g  opacity="0.8" id="0.1.2.0.0.18.0.0.0.33">
                 <polygon  fill="#1A1A1A" points="-1475.46,-2102.2,-1475.46,-2092.61,-1475.81,-2093.35,-1475.81,-2102.94" id="0.1.2.0.0.18.0.0.0.33.0"/>
                </g>
                <g  opacity="0.8" id="0.1.2.0.0.18.0.0.0.34">
                 <polygon  fill="#1A1A1A" points="-1473.83,-2102.79,-1473.83,-2093.2,-1474.33,-2092.53,-1474.33,-2102.12" id="0.1.2.0.0.18.0.0.0.34.0"/>
                </g>
                <g  opacity="0.8" id="0.1.2.0.0.18.0.0.0.35">
                 <polygon  fill="#1A1A1A" points="-1474.33,-2102.12,-1474.33,-2092.53,-1474.83,-2093.2,-1474.83,-2102.79" id="0.1.2.0.0.18.0.0.0.35.0"/>
                </g>
                <polygon  fill="#1A1A1A" points="-1468.61,-2107.31,-1467.85,-2107.74,-1468.61,-2108.17,-1467.94,-2108.71,-1468.79,-2109.02,-1468.24,-2109.66,-1469.13,-2109.84,-1468.71,-2110.54,-1469.63,-2110.59,-1469.36,-2111.35,-1470.27,-2111.25,-1470.16,-2112.04,-1471.04,-2111.81,-1471.08,-2112.6,-1471.9,-2112.24,-1472.11,-2113.02,-1472.84,-2112.54,-1473.2,-2113.27,-1473.83,-2112.69,-1473.83,-2112.69,-1473.93,-2107.73,-1474.94,-2107.75,-1474.84,-2112.69,-1475.46,-2113.27,-1475.81,-2112.54,-1476.55,-2113.02,-1476.75,-2112.24,-1477.57,-2112.6,-1477.62,-2111.81,-1478.5,-2112.04,-1478.38,-2111.25,-1479.29,-2111.35,-1479.03,-2110.59,-1479.95,-2110.54,-1479.53,-2109.84,-1480.43,-2109.66,-1479.87,-2109.02,-1480.72,-2108.71,-1480.05,-2108.17,-1480.82,-2107.74,-1480.05,-2107.31,-1480.72,-2106.76,-1479.87,-2106.45,-1480.43,-2105.82,-1479.53,-2105.64,-1479.95,-2104.93,-1479.03,-2104.89,-1479.3,-2104.12,-1478.38,-2104.22,-1478.5,-2103.43,-1477.62,-2103.67,-1477.58,-2102.87,-1476.75,-2103.23,-1476.55,-2102.46,-1475.81,-2102.94,-1475.46,-2102.2,-1474.83,-2102.79,-1474.33,-2102.12,-1473.83,-2102.79,-1473.2,-2102.2,-1472.84,-2102.94,-1472.11,-2102.46,-1471.91,-2103.23,-1471.08,-2102.87,-1471.04,-2103.67,-1470.16,-2103.43,-1470.27,-2104.22,-1469.36,-2104.12,-1469.63,-2104.89,-1468.71,-2104.93,-1469.13,-2105.64,-1468.24,-2105.82,-1468.79,-2106.45,-1467.94,-2106.76" id="0.1.2.0.0.18.0.0.0.36"/>
               </g>
              </g>
             </g>
            </g>
            <rect  width="10.742" x="-1479.63" y="-2060.14" fill="#1A1A1A" height="1.209" id="0.1.2.0.0.19"/>
            <rect  width="10.742" x="-1479.63" y="-2061.71" fill="#0E0E0E" height="1.576" id="0.1.2.0.0.20"/>
           </g>
          </g>
         </g>
        </g>
       </g>
      </g>
     </g>
    </g>
   </g>
  </g>
 </g>
 <ellipse  fill="#0E0E0E" cx="14.455" cy="5.531" rx="5.515" ry="4.507" id="0.1.3"/>
 <g  id="0.1.4">
  <path  id="0.1.4.0" d="M14.956,5.542l0.091,-4.468c-0.196,-0.018,-0.39,-0.05,-0.592,-0.05c-0.141,0,-0.271,0.025,-0.411,0.033l-0.09,4.462L14.956,5.542z"/>
 </g>
 <g  id="0.1.5">
  <g  id="breadboard_1_">
   <rect  width="1.191" x="21.225" y="58.37" fill="#8C8C8C" height="1.381" id="0.1.5.0.0"/>
   <rect  width="1.191" x="14.02" y="58.37" fill="#8C8C8C" height="1.381" id="0.1.5.0.1"/>
   <rect  width="1.19" x="6.823" y="58.37" fill="#8C8C8C" height="1.381" id="0.1.5.0.2"/>
  </g>
  <g  id="breadboard">
   <g  id="0.1.5.1.0">
    <path  fill="#8C8C8C" id="0.1.5.1.0.0" d="M20.615,56.093c0,-0.084,0.07,-0.154,0.154,-0.154l2.104,0c0.084,0,0.152,0.07,0.152,0.154l0,2.303c0,0.084,-0.068,0.154,-0.152,0.154L20.77,58.55c-0.084,0,-0.154,-0.07,-0.154,-0.154L20.616,56.093z"/>
   </g>
   <g  id="0.1.5.1.1">
    <path  fill="#8C8C8C" id="0.1.5.1.1.0" d="M13.412,56.093c0,-0.084,0.068,-0.154,0.152,-0.154l2.104,0c0.084,0,0.152,0.07,0.152,0.154l0,2.303c0,0.084,-0.068,0.154,-0.152,0.154l-2.104,0c-0.084,0,-0.152,-0.07,-0.152,-0.154L13.412,56.093z"/>
   </g>
   <g  id="0.1.5.1.2">
    <path  fill="#8C8C8C" id="0.1.5.1.2.0" d="M6.211,56.093c0,-0.084,0.069,-0.154,0.153,-0.154l2.104,0c0.084,0,0.153,0.07,0.153,0.154l0,2.303c0,0.084,-0.069,0.154,-0.153,0.154L6.364,58.55c-0.084,0,-0.153,-0.07,-0.153,-0.154L6.211,56.093z"/>
   </g>
  </g>
  <g  opacity="0.2" id="breadboard_3_">
   <rect  width="2.41" x="20.615" y="55.938" height="0.164" id="0.1.5.2.0"/>
   <rect  width="2.408" x="13.412" y="55.938" height="0.164" id="0.1.5.2.1"/>
   <rect  width="2.409" x="6.211" y="55.938" height="0.164" id="0.1.5.2.2"/>
  </g>
  <g  id="breadboard_4_">
   <rect  width="2.41" x="20.615" y="55.772" height="0.166" id="0.1.5.3.0"/>
   <rect  width="2.408" x="13.412" y="55.772" height="0.166" id="0.1.5.3.1"/>
   <rect  width="2.409" x="6.211" y="55.772" height="0.166" id="0.1.5.3.2"/>
  </g>
  <g  id="0.1.5.4">
   <path  fill="#808080" id="0.1.5.4.0" d="M7.736,59.462c0,0.098,-0.0940001,0.18,-0.21,0.18L7.305,59.642c-0.116,0,-0.21,-0.082,-0.21,-0.18l0,-1.475c0,-0.098,0.0940001,-0.18,0.21,-0.18l0.221,0c0.116,0,0.21,0.082,0.21,0.18L7.736,59.462z"/>
   <path  opacity="0.1" id="0.1.5.4.1" d="M7.736,58.124c0,-0.115,-0.0940001,-0.211,-0.21,-0.211L7.305,57.913c-0.116,0,-0.21,0.096,-0.21,0.211l0,-0.105c0,-0.115,0.0940001,-0.211,0.21,-0.211l0.221,0c0.116,0,0.21,0.096,0.21,0.211L7.736,58.124z"/>
   <path  opacity="0.15" fill="#FFFFFF" id="0.1.5.4.2" d="M7.095,59.372c0,0.098,0.0940001,0.18,0.21,0.18l0.221,0c0.116,0,0.21,-0.082,0.21,-0.18l0,0.09c0,0.098,-0.0940001,0.18,-0.21,0.18L7.305,59.642c-0.116,0,-0.21,-0.082,-0.21,-0.18L7.095,59.372z"/>
  </g>
  <g  id="0.1.5.5">
   <path  fill="#808080" id="0.1.5.5.0" d="M14.936,59.462c0,0.098,-0.0940001,0.18,-0.211,0.18l-0.221,0c-0.115,0,-0.209,-0.082,-0.209,-0.18l0,-1.475c0,-0.098,0.0940001,-0.18,0.209,-0.18l0.221,0c0.117,0,0.211,0.082,0.211,0.18L14.936,59.462z"/>
   <path  opacity="0.1" id="0.1.5.5.1" d="M14.936,58.124c0,-0.115,-0.0940001,-0.211,-0.211,-0.211l-0.221,0c-0.115,0,-0.209,0.096,-0.209,0.211l0,-0.105c0,-0.115,0.0940001,-0.211,0.209,-0.211l0.221,0c0.117,0,0.211,0.096,0.211,0.211L14.936,58.124z"/>
   <path  opacity="0.15" fill="#FFFFFF" id="0.1.5.5.2" d="M14.295,59.372c0,0.098,0.0940001,0.18,0.209,0.18l0.221,0c0.117,0,0.211,-0.082,0.211,-0.18l0,0.09c0,0.098,-0.0940001,0.18,-0.211,0.18l-0.221,0c-0.115,0,-0.209,-0.082,-0.209,-0.18L14.295,59.372z"/>
  </g>
  <g  id="0.1.5.6">
   <path  fill="#808080" id="0.1.5.6.0" d="M22.141,59.462c0,0.098,-0.0940001,0.18,-0.209,0.18l-0.221,0c-0.115,0,-0.211,-0.082,-0.211,-0.18l0,-1.475c0,-0.098,0.0960001,-0.18,0.211,-0.18l0.221,0c0.115,0,0.209,0.082,0.209,0.18L22.141,59.462z"/>
   <path  opacity="0.1" id="0.1.5.6.1" d="M22.141,58.124c0,-0.115,-0.0940001,-0.211,-0.209,-0.211l-0.221,0c-0.115,0,-0.211,0.096,-0.211,0.211l0,-0.105c0,-0.115,0.0960001,-0.211,0.211,-0.211l0.221,0c0.115,0,0.209,0.096,0.209,0.211L22.141,58.124z"/>
   <path  opacity="0.15" fill="#FFFFFF" id="0.1.5.6.2" d="M21.5,59.372c0,0.098,0.0960001,0.18,0.211,0.18l0.221,0c0.115,0,0.209,-0.082,0.209,-0.18l0,0.09c0,0.098,-0.0940001,0.18,-0.209,0.18l-0.221,0c-0.115,0,-0.211,-0.082,-0.211,-0.18L21.5,59.372z"/>
  </g>
 </g>
 <g  id="0.1.6">
  <polygon  fill="none" points="8.462,17.098,8.535,17.114,8.535,17.016" id="0.1.6.0"/>
  <path  fill="none" id="0.1.6.1" d="M8.462,17.098l0.073,-0.083l0,-0.082l0.072,0l0.413,-0.469l-0.801,-0.297l0,19.937c0.042,0.506,0.163,0.984,0.318,1.451L8.537,17.114L8.462,17.098z"/>
  <path  fill="#0F0F0F" id="0.1.6.2" d="M20.952,16.156l-0.851,0.311l0.552,0.632l-0.893,0.182l0.42,0.708L19.26,18.03l0.271,0.762l-0.913001,-0.098l0.108,0.791l-0.88,-0.236l-0.04,0.797l-0.187,-0.082l0,21.211c1.862,-0.998,3.195,-2.865,3.378,-5.07L20.997,16.156L20.952,16.156z"/>
  <path  opacity="0.2" fill="#202020" id="0.1.6.3" d="M16.98,19.684l-0.2,0.779l-0.732,-0.485l-0.281,0.571l0,21.295c0.662,-0.119,1.277,-0.361,1.854,-0.668L17.621,19.965L16.98,19.684z"/>
  <polygon  opacity="0.2" fill="#202020" points="8.535,17.016,8.607,16.935,8.535,16.935" id="0.1.6.4"/>
  <path  opacity="0.2" fill="#202020" id="0.1.6.5" d="M11.723,41.239L11.723,19.866l-0.413,0.183l-0.041,-0.799l-0.878,0.235l0.115,-0.791l-0.920001,0.099l0.27,-0.761L8.942,17.99l0.413,-0.709l-0.819,-0.167l0,20.443C9.069,39.167,10.228,40.479,11.723,41.239z"/>
  <path  opacity="0.2" fill="#202020" id="0.1.6.6" d="M13.074,19.978l-0.736,0.485l-0.203,-0.779l-0.412,0.182l0,21.374c0.455,0.23,0.934001,0.418,1.439,0.533L13.162,20.163L13.074,19.978z"/>
  <path  opacity="0.2" fill="#353535" id="0.1.6.7" d="M13.074,19.978l-0.736,0.485l-0.203,-0.779l-0.412,0.182l0,21.374c0.455,0.23,0.934001,0.418,1.439,0.533L13.162,20.163L13.074,19.978z"/>
  <path  opacity="0.2" fill="#202020" id="0.1.6.8" d="M15.056,20.129l-0.502,0.668l-0.227,-0.303l0,21.432c0.0930001,0.008,0.186,0.029,0.279,0.029c0.396,0,0.783,-0.043,1.157,-0.113L15.763,20.549l-0.082,0.165L15.056,20.129z"/>
  <path  opacity="0.2" fill="#353535" id="0.1.6.9" d="M15.056,20.129l-0.502,0.668l-0.227,-0.303l0,21.432c0.0930001,0.008,0.186,0.029,0.279,0.029c0.396,0,0.783,-0.043,1.157,-0.113L15.763,20.549l-0.082,0.165L15.056,20.129z"/>
  <path  opacity="0.2" fill="#202020" id="0.1.6.10" d="M14.053,20.129l-0.627,0.585l-0.264,-0.551l0,21.609c0.378,0.088,0.765,0.139,1.165,0.156L14.327,20.495L14.053,20.129z"/>
  <path  opacity="0.2" fill="#353535" id="0.1.6.11" d="M14.053,20.129l-0.627,0.585l-0.264,-0.551l0,21.609c0.378,0.088,0.765,0.139,1.165,0.156L14.327,20.495L14.053,20.129z"/>
  <path  opacity="0.2" fill="#515151" id="0.1.6.12" d="M14.053,20.129l-0.627,0.585l-0.264,-0.551l0,21.609c0.378,0.088,0.765,0.139,1.165,0.156L14.327,20.495L14.053,20.129z"/>
 </g>
 <g  opacity="0.2" id="0.1.7">
  <path  fill="#FFFFFF" id="0.1.7.0" d="M26.324,21.263c0,-0.784,-0.636,-1.418,-1.418,-1.418c-0.78,0,-1.418,0.634,-1.418,1.418l0,-0.097c0,-0.783,0.638,-1.417,1.418,-1.417c0.782,0,1.418,0.634,1.418,1.417L26.324,21.263z"/>
  <path  fill="#FFFFFF" id="0.1.7.1" d="M5.695,21.263c0,-0.784,-0.635,-1.418,-1.418,-1.418c-0.784,0,-1.418,0.634,-1.418,1.418l0,-0.097c0,-0.783,0.634,-1.417,1.418,-1.417c0.783,0,1.418,0.634,1.418,1.417L5.695,21.263z"/>
 </g>
 <g  opacity="0.2" id="0.1.8">
  <path  fill="#FFFFFF" id="0.1.8.0" d="M26.324,48.552c0,-0.783,-0.636,-1.418,-1.418,-1.418c-0.78,0,-1.418,0.635,-1.418,1.418l0,-0.094c0,-0.783,0.638,-1.422,1.418,-1.422c0.782,0,1.418,0.639,1.418,1.422L26.324,48.552z"/>
  <path  fill="#FFFFFF" id="0.1.8.1" d="M5.695,48.552c0,-0.783,-0.635,-1.418,-1.418,-1.418c-0.784,0,-1.418,0.635,-1.418,1.418l0,-0.094c0,-0.783,0.634,-1.422,1.418,-1.422c0.783,0,1.418,0.639,1.418,1.422L5.695,48.552z"/>
 </g>
 <g  id="0.1.9">
  <rect  width="0.436" x="27.575" y="43.116" fill="#808080" height="6.225" id="0.1.9.0"/>
  <rect  width="0.433" x="27.578" y="27.216" fill="#ABABAB" height="15.9" id="0.1.9.1"/>
  <polygon  fill="#666666" points="29.102,43.671,28.291,44.569,28.291,38.312,29.102,37.411" id="0.1.9.2"/>
  <path  fill="#999999" id="0.1.9.3" d="M29.19,43.571l-1.179,-0.486l0,-6.256l1.086,0.445c0.0930001,0.137,0.0930001,0.137,0.0930001,0.137L29.19,43.571z"/>
  <path  fill="#808080" id="0.1.9.4" d="M28.011,43.019l0,0.135l0.942001,0.389c0.081,0.033,0.0990001,0.115,0.041,0.18l-0.597,0.66c-0.058,0.066,-0.106,0.15,-0.106,0.188s0.049,0.014,0.106,-0.051l0.686,-0.76c0.058,-0.066,0.106,-0.15,0.106,-0.188s-0.066,-0.094,-0.147,-0.127L28.011,43.019z"/>
 </g>
 <g  id="0.1.10">
  <rect  width="0.435" x="1.179" y="43.116" fill="#808080" height="6.225" id="0.1.10.0"/>
  <rect  width="0.433" x="1.179" y="27.216" fill="#ABABAB" height="15.9" id="0.1.10.1"/>
  <polygon  fill="#666666" points="0.088,43.671,0.899,44.569,0.899,38.312,0.088,37.411" id="0.1.10.2"/>
  <path  fill="#999999" id="0.1.10.3" d="M0,43.571l1.179,-0.486l0,-6.256l-1.086,0.445C0,37.411,0,37.411,0,37.411L0,43.571z"/>
  <path  fill="#808080" id="0.1.10.4" d="M1.179,43.019l0,0.135l-0.942001,0.389c-0.081,0.033,-0.0990001,0.115,-0.041,0.18l0.596,0.66c0.059,0.066,0.107,0.15,0.107,0.188s-0.048,0.014,-0.107,-0.051l-0.685,-0.76C0.049,43.692,0,43.608,0,43.571s0.066,-0.094,0.147,-0.127L1.179,43.019z"/>
 </g>
</g>
</g></g><g partID='20710'><g transform='translate(0,97.4376)' ><g xmlns="http://www.w3.org/2000/svg" id="breadboard">
 <text xmlns="http://www.w3.org/2000/svg" xml:space="preserve" xmlns:xml="http://www.w3.org/XML/1998/namespace" x="15.0236" y="9.01418" fill="#787878" font-family="Droid Sans" text-anchor="middle" id="label" stroke-width="0" font-size="10.0158">GND</text>
</g>
</g></g><g partID='20740'><g transform='translate(45.0529,98.1885)' ><g xmlns="http://www.w3.org/2000/svg" id="breadboard">
 <text xmlns="http://www.w3.org/2000/svg" xml:space="preserve" xmlns:xml="http://www.w3.org/XML/1998/namespace" x="15.0236" y="9.01418" fill="#787878" font-family="Droid Sans" text-anchor="middle" id="label" stroke-width="0" font-size="10.0158">OUT</text>
</g>
</g></g><g partID='20770'><g transform='translate(91.6075,95.185)' ><g xmlns="http://www.w3.org/2000/svg" id="breadboard">
 <text xmlns="http://www.w3.org/2000/svg" xml:space="preserve" xmlns:xml="http://www.w3.org/XML/1998/namespace" x="15.0236" y="9.01418" fill="#787878" font-family="Droid Sans" text-anchor="middle" id="label" stroke-width="0" font-size="10.0158">VCC</text>
</g>
</g></g><g partID='20260'><line stroke-linecap='round' stroke='#1b5bb3' x1='57.9618' y1='59.1925' x2='57.9638' y2='92.9738' stroke-width='3.2' /><line stroke-linecap='round' stroke='#418dd9' x1='57.9618' y1='59.1925' x2='57.9638' y2='92.9738' stroke-width='1.6' /></g><g partID='20580'><line stroke-linecap='round' stroke='#8c0000' x1='65.1683' y1='59.1905' x2='98.4987' y2='91.6053' stroke-width='3.2' /><line stroke-linecap='round' stroke='#cc1414' x1='65.1683' y1='59.1905' x2='98.4987' y2='91.6053' stroke-width='1.6' /></g><g partID='20610'><line stroke-linecap='round' stroke='#000000' x1='50.7638' y1='59.1905' x2='18.9053' y2='93.1071' stroke-width='3.2' /><line stroke-linecap='round' stroke='#404040' x1='50.7638' y1='59.1905' x2='18.9053' y2='93.1071' stroke-width='1.6' /></g></svg>