<?xml version="1.0" encoding="UTF-8" standalone="no"?>
<!-- Created with Inkscape (http://www.inkscape.org/) -->

<svg
   xmlns:dc="http://purl.org/dc/elements/1.1/"
   xmlns:cc="http://creativecommons.org/ns#"
   xmlns:rdf="http://www.w3.org/1999/02/22-rdf-syntax-ns#"
   xmlns:svg="http://www.w3.org/2000/svg"
   xmlns="http://www.w3.org/2000/svg"
   xmlns:sodipodi="http://sodipodi.sourceforge.net/DTD/sodipodi-0.dtd"
   xmlns:inkscape="http://www.inkscape.org/namespaces/inkscape"
   width="279.77536mm"
   height="127.17062mm"
   viewBox="0 0 991.33002 450.60457"
   id="svg6279"
   version="1.1"
   inkscape:version="0.91 r13725"
   sodipodi:docname="iis_logo.svg">
  <defs
     id="defs6281" />
  <sodipodi:namedview
     id="base"
     pagecolor="#ffffff"
     bordercolor="#666666"
     borderopacity="1.0"
     inkscape:pageopacity="0.0"
     inkscape:pageshadow="2"
     inkscape:zoom="0.7"
     inkscape:cx="134.14942"
     inkscape:cy="380.92141"
     inkscape:document-units="px"
     inkscape:current-layer="layer1"
     showgrid="false"
     fit-margin-top="0"
     fit-margin-left="0"
     fit-margin-right="0"
     fit-margin-bottom="0"
     inkscape:window-width="1594"
     inkscape:window-height="857"
     inkscape:window-x="0"
     inkscape:window-y="40"
     inkscape:window-maximized="0" />
  <metadata
     id="metadata6284">
    <rdf:RDF>
      <cc:Work
         rdf:about="">
        <dc:format>image/svg+xml</dc:format>
        <dc:type
           rdf:resource="http://purl.org/dc/dcmitype/StillImage" />
        <dc:title></dc:title>
      </cc:Work>
    </rdf:RDF>
  </metadata>
  <g
     inkscape:label="Layer 1"
     inkscape:groupmode="layer"
     id="layer1"
     transform="translate(282.31046,-145.72645)">
    <g
       id="g7669"
       transform="matrix(1.5020152,0,0,1.5020152,-331.66238,-282.67732)">
      <path
         style="fill:#fefefe"
         d="m 32.85714,435.21933 0,-150 330,0 330,0 0,150 0,150 -330,0 -330,0 0,-150 z"
         id="path7685"
         inkscape:connector-curvature="0" />
      <path
         style="fill:#d1d0d0"
         d="m 434.73214,564.71217 c -9.93725,-2.45579 -23.18047,-10.27028 -23.08005,-13.61895 0.0248,-0.82439 1.40886,-3.16789 3.07586,-5.20779 l 3.03092,-3.7089 3.87189,2.86261 c 16.91657,12.50695 39.46629,11.99661 46.40875,-1.05031 4.32442,-8.12684 2.14674,-16.88729 -5.8329,-23.46478 -2.59109,-2.1358 -10.68595,-6.49512 -17.98856,-9.68737 -18.02812,-7.8808 -24.51858,-12.77144 -28.50496,-21.47883 -2.53341,-5.5337 -3.02701,-8.1344 -2.45713,-12.94616 1.45449,-12.28096 10.2917,-22.89489 22.41508,-26.92162 9.6389,-3.20153 25.71314,-2.01145 35.02434,2.59307 10.01167,4.95091 10.47847,5.75424 6.86493,11.81388 l -3.00725,5.04296 -4.26956,-3.14998 c -5.17122,-3.81521 -14.81014,-6.8305 -21.71574,-6.79322 -13.05922,0.0705 -24.72993,11.36245 -22.48182,21.7522 1.66379,7.68932 5.08835,10.49175 23.87721,19.5395 22.03095,10.60897 25.64471,13.26422 29.90581,21.9736 2.87135,5.86882 3.23584,7.88601 2.6788,14.82542 -1.76355,21.97017 -22.41585,33.90168 -47.81562,27.62467 z m -100.625,-58.24284 0,-57.5 5.625,0 5.625,0 0,57.5 0,57.5 -5.625,0 -5.625,0 0,-57.5 z m 42.5,-0.0685 0,-57.56849 5.9375,0.38099 5.9375,0.38099 0.32511,57.1875 0.32511,57.1875 -6.26261,0 -6.26261,0 0,-57.56849 z m -343.75,-104.9315 0,-33.75 33.75,0 33.75,0 0,33.75 0,33.75 -33.75,0 -33.75,0 0,-33.75 z m 73.75,0 0,-33.75 33.75,0 33.75,0 0,33.75 0,33.75 -33.75,0 -33.75,0 0,-33.75 z m 260.625,6.40425 c -9.63433,-2.53324 -17.767,-9.7759 -20.75601,-18.48454 -2.27774,-6.63632 -1.9904,-19.02728 0.59842,-25.80603 4.75593,-12.45323 19.73925,-20.81507 34.24334,-19.1104 10.50405,1.23454 11.53925,2.15852 11.53925,10.29944 0,6.15295 -0.25497,6.85669 -2.1875,6.03765 -11.32686,-4.80056 -16.63684,-4.85054 -23.26642,-0.21902 -8.84617,6.18006 -9.44406,23.83607 -1.05999,31.30218 5.31081,4.72934 13.29754,4.80091 24.32641,0.21799 1.92863,-0.80142 2.1875,-0.094 2.1875,5.97746 0,6.64465 -0.14265,6.93633 -4.0625,8.30681 -5.45547,1.90738 -16.93717,2.69464 -21.5625,1.47846 z m 92.15224,-0.66316 c -12.96759,-4.23905 -20.24325,-14.88289 -20.26503,-29.64643 -0.0213,-14.43079 5.39986,-24.14293 16.86279,-30.21021 7.1643,-3.79204 22.88611,-3.75389 30.19159,0.0733 6.34879,3.32596 12.09863,10.07684 14.00662,16.44515 1.83895,6.13786 1.8273,17.84532 -0.0239,24.02409 -1.8726,6.25019 -8.7392,14.23142 -14.9855,17.41805 -6.39173,3.26081 -18.81691,4.17444 -25.78656,1.89609 z m 20.02232,-13.42603 c 3.95655,-2.07268 6.4074,-8.71818 6.43708,-17.4542 0.049,-14.42254 -7.71049,-21.80644 -19.49597,-18.55231 -8.58395,2.37014 -13.23831,11.81022 -11.50892,23.34263 1.81839,12.12583 13.80264,18.30331 24.56781,12.66387 z m 36.24374,13.92713 c -2.93244,-0.61511 -5.88556,-1.46069 -6.5625,-1.87906 -0.67694,-0.41837 -1.2308,-4.0319 -1.2308,-8.03008 l 0,-7.2694 4.9676,2.45778 c 10.70647,5.29714 20.0324,4.06531 20.0324,-2.64601 0,-3.1531 -0.98278,-4.01291 -9.0625,-7.9286 -11.68011,-5.66055 -14.87992,-9.13011 -15.63121,-16.94903 -0.74338,-7.73646 1.79856,-12.87361 8.59585,-17.37184 4.21695,-2.79064 6.49926,-3.3695 13.40264,-3.39926 4.57612,-0.0197 9.86709,0.38191 11.75772,0.89253 3.21896,0.86939 3.4375,1.36398 3.4375,7.7796 0,3.76815 -0.14063,6.84271 -0.3125,6.83236 -0.17188,-0.0104 -2.5625,-0.82941 -5.3125,-1.82013 -7.04236,-2.53711 -12.33008,-2.36129 -14.91584,0.49595 -3.74001,4.13267 -1.9409,6.65526 8.62789,12.09746 5.4788,2.8212 10.97773,6.49064 12.21984,8.15431 5.939,7.95465 2.80973,20.6767 -6.3525,25.82616 -5.57851,3.1353 -16.0445,4.35492 -23.66109,2.75726 z m 59.58664,-0.38535 c -14.33572,-4.049 -22.36015,-17.36902 -20.80379,-34.53286 1.83462,-20.23267 19.00865,-31.99381 40.27245,-27.57946 7.71744,1.60213 15.44984,7.32262 18.88982,13.97482 5.31733,10.28256 4.58529,25.82849 -1.69038,35.89806 -6.65313,10.67521 -22.94847,16.11443 -36.6681,12.23944 z m 20.12006,-14.50979 c 4.38346,-3.10115 6.59956,-10.44971 5.83564,-19.35092 -0.76442,-8.90693 -3.65498,-13.27067 -10.25305,-15.47852 -6.72794,-2.25131 -13.87755,0.10926 -17.73268,5.85474 -4.06885,6.064 -4.0658,19.19958 0.006,25.2553 4.83583,7.19223 14.85634,8.8753 22.14421,3.7194 z m 78.86707,14.59085 c -8.33276,-3.0586 -9.41596,-6.146 -10.11707,-28.836 l -0.625,-20.2269 -10.3125,-0.36305 -10.3125,-0.36306 0,25.11294 0,25.11293 -7.1875,-0.37488 -7.1875,-0.37488 -0.33893,-24.6875 -0.33892,-24.6875 -4.97358,0 -4.97357,0 0,-6.25 0,-6.25 5,0 5,0 0,-6.29015 c 0,-3.45958 0.76726,-8.12647 1.70504,-10.37086 3.57268,-8.55065 14.8558,-14.35096 24.68573,-12.69021 l 4.85923,0.82096 0,6.11309 0,6.11308 -5.62116,-0.24464 c -7.22365,-0.31439 -9.54698,1.97927 -10.3374,10.20539 l -0.60952,6.34334 10.78404,0 10.78404,0 0,-6.64672 0,-6.64673 6.67236,-2.10327 c 3.6698,-1.1568 7.0448,-2.10328 7.5,-2.10328 0.4552,0 0.82764,3.9375 0.82764,8.75 l 0,8.75 6.875,0 6.875,0 0,6.25 0,6.25 -6.90933,0 -6.90931,0 0.34681,17.79744 0.34683,17.79745 3.32215,1.59047 c 2.35734,1.12858 4.26319,1.23269 6.5625,0.3585 3.21479,-1.22226 3.24035,-1.18351 3.24035,4.91331 0,3.37991 -0.5491,6.48465 -1.22023,6.89942 -2.60882,1.61235 -13.36511,1.81701 -17.4127,0.33131 z m -457.97758,-0.46508 c -0.48923,-0.48922 -0.88949,-19.94264 -0.88949,-43.22982 l 0,-42.34033 10.91312,0.36116 10.91313,0.36117 10.93195,27.5 c 6.01258,15.125 11.55461,28.89457 12.31564,30.59903 1.25549,2.81193 2.5466,0.23529 13.93643,-27.8125 l 12.55277,-30.91153 10.48489,0 10.4849,0 -0.32892,42.8125 -0.32891,42.8125 -7.16628,0.37425 -7.16626,0.37424 -0.33374,-32.24924 -0.33372,-32.24925 -12.63758,31.875 -12.63757,31.875 -5.21114,0.38614 c -6.10895,0.45267 -4.5538,3.26137 -20.87569,-37.7028 l -9.88802,-24.81666 -0.625,31.06666 -0.625,31.06666 -6.29801,0.36865 c -3.46392,0.20276 -6.69829,-0.0316 -7.1875,-0.52083 z m 104.67253,-0.81118 c -0.33522,-0.8736 -0.4582,-14.79547 -0.27326,-30.9375 l 0.33624,-29.34914 7.1875,-0.37488 7.1875,-0.37488 0,31.31238 0,31.31238 -6.91422,0 c -4.43832,0 -7.1325,-0.56878 -7.52376,-1.58836 z m 81.93798,-29.59926 0,-31.31238 7.5,0 7.5,0 0,4.25 0,4.25 4.25,-4.25 c 3.72222,-3.72222 5.04166,-4.25 10.625,-4.25 l 6.375,0 0,7.51477 0,7.51477 -4.94099,-0.79009 c -13.10989,-2.09636 -15.46118,1.97802 -16.30901,28.26055 l -0.625,19.375 -7.1875,0.37488 -7.1875,0.37488 0,-31.31238 z m -370,-48.81238 0,-33.75 33.75,0 33.75,0 0,33.75 0,33.75 -33.75,0 -33.75,0 0,-33.75 z m 73.75,0 0,-33.75 33.75,0 33.75,0 0,33.75 0,33.75 -33.75,0 -33.75,0 0,-33.75 z m 217.89421,8.74127 c -5.7735,-2.32619 -7.00475,-9.29246 -2.40598,-13.61278 4.05673,-3.8111 10.2536,-3.19557 13.63531,1.3544 2.16007,2.90629 2.29141,3.85112 0.9766,7.02535 -0.83551,2.0171 -2.91381,4.30293 -4.61844,5.07961 -3.57069,1.62692 -3.91317,1.63384 -7.58749,0.15342 z"
         id="path7683"
         inkscape:connector-curvature="0" />
      <path
         style="fill:#9d9c9c"
         d="m 436.60714,564.83947 c -7.8473,-1.7882 -16.47031,-5.7548 -21.73124,-9.99639 -3.80349,-3.06654 -3.70476,-4.05718 1.00284,-10.06262 1.74632,-2.22777 1.97064,-2.19428 6.02744,0.89998 11.61641,8.86028 29.2206,11.76615 38.44671,6.3463 10.0709,-5.9161 13.08262,-17.94683 6.80534,-27.1847 -2.64933,-3.89882 -6.30763,-6.20605 -21.29301,-13.42906 -21.55553,-10.38987 -28.33803,-15.92162 -31.15594,-25.41056 -8.66415,-29.17539 31.43609,-49.96521 60.24738,-31.23504 l 5.22452,3.39645 -2.47915,4.85954 c -1.36353,2.67275 -2.87081,4.66004 -3.34951,4.4162 -14.844,-7.56111 -17.47247,-8.46831 -24.53823,-8.46925 -22.16259,-0.002 -32.60906,20.79375 -16.58454,33.01625 2.26889,1.73056 10.8476,6.0967 19.06382,9.70252 18.63466,8.17815 26.75012,15.34457 29.26955,25.84672 4.72372,19.6907 -8.80559,36.51993 -30.77707,38.28391 -4.01715,0.32251 -10.39766,-0.11863 -14.17891,-0.98025 z m -102.20011,-58.05764 0.32511,-57.1875 5.3125,-0.38437 5.3125,-0.38438 0,57.57188 0,57.57187 -5.63761,0 -5.63761,0 0.32511,-57.1875 z m 42.5,0 0.32511,-57.1875 5.3125,-0.38437 5.3125,-0.38438 0,57.57188 0,57.57187 -5.63761,0 -5.63761,0 0.32511,-57.1875 z m -344.04989,-105.3125 0,-33.75 33.125,0 33.125,0 0,33.75 0,33.75 -33.125,0 -33.125,0 0,-33.75 z m 73.75,0 0,-33.79083 33.4375,0.33291 33.4375,0.33292 0,33.125 0,33.125 -33.4375,0.33291 -33.4375,0.33293 0,-33.79084 z m 253.7693,2.87481 c -9.33102,-4.91392 -14.09494,-12.53409 -14.80472,-23.68107 -1.36004,-21.35911 10.99622,-35.44374 31.09432,-35.44374 4.57493,0 10.08947,0.61753 12.25457,1.37228 3.75424,1.30874 3.93653,1.68214 3.93653,8.06389 l 0,6.6916 -5.3125,-2.41143 c -9.262,-4.20418 -16.70426,-2.81566 -23.4172,4.36899 -2.60014,2.78285 -3.16938,4.78282 -3.5026,12.30627 -0.47793,10.7902 2.15481,16.15902 9.41064,19.1907 5.29211,2.21119 14.07749,1.52044 18.63398,-1.46509 1.56734,-1.02697 3.15077,-1.86721 3.5187,-1.86721 0.36794,0 0.66898,2.79271 0.66898,6.20602 0,7.84536 -1.94327,9.05974 -15.625,9.76423 -9.13844,0.47055 -10.59066,0.20386 -16.8557,-3.09544 z m 96.2307,1.38231 c -13.89964,-6.02062 -20.59725,-22.96316 -15.71571,-39.75508 2.69036,-9.25451 10.13812,-17.06546 18.50582,-19.40828 7.60109,-2.12817 21.47688,-1.25534 27.66766,1.74038 10.55916,5.10959 16.16004,19.18555 13.59424,34.16459 -2.79912,16.34114 -13.75776,25.2969 -30.83865,25.20234 -5.0328,-0.0279 -10.72212,-0.86487 -13.21336,-1.94395 z m 23.97325,-12.54679 c 5.70701,-5.08345 7.6875,-17.10382 4.3937,-26.66705 -4.34945,-12.62818 -22.94479,-13.23519 -28.7795,-0.93944 -2.73161,5.75646 -2.6818,16.57363 0.102,22.14616 4.15234,8.31205 17.66994,11.35155 24.28381,5.46033 z m 31.33925,12.98123 c -3.91537,-1.25602 -4.0625,-1.54564 -4.0625,-7.99739 0,-3.68179 0.16231,-6.69417 0.3607,-6.69417 0.19839,0 2.56731,1.125 5.2643,2.5 9.20457,4.69276 20.625,2.65163 20.625,-3.68623 0,-2.91457 -1.28682,-3.91534 -12.09065,-9.40298 -10.43893,-5.3023 -13.3315,-8.98434 -13.44947,-17.12023 -0.0919,-6.33441 2.34283,-10.72527 8.49327,-15.31724 4.00435,-2.98967 19.22352,-4.28126 24.85935,-2.10971 3.11171,1.19898 3.4375,1.91374 3.4375,7.54167 l 0,6.21715 -4.33485,-1.81121 c -5.25699,-2.19651 -14.60529,-2.37109 -16.66515,-0.31122 -2.18023,2.18023 -1.83699,6.56635 0.6875,8.78517 1.20312,1.05745 5.39591,3.4232 9.3173,5.25721 9.70969,4.54118 13.49652,9.24045 13.49052,16.74103 -0.01,12.16752 -8.63146,18.99784 -23.74532,18.81153 -4.46875,-0.0551 -9.95313,-0.68661 -12.1875,-1.40337 z m 60.3125,-0.17762 c -11.42375,-4.99052 -17.27801,-14.87305 -17.28638,-29.181 -0.007,-12.36762 4.61573,-21.69985 13.45751,-27.1663 5.73073,-3.54305 6.93123,-3.79164 18.31067,-3.79164 11.55016,0 12.45721,0.19615 17.59802,3.80551 2.9811,2.09302 6.82643,6.31177 8.54518,9.375 2.69205,4.79788 3.12376,7.12809 3.11604,16.81949 -0.007,9.20407 -0.51222,12.19414 -2.77623,16.44159 -3.3955,6.37022 -10.14952,12.10617 -16.49266,14.00662 -6.34181,1.90005 -19.80426,1.72992 -24.47215,-0.30927 z m 21.277,-11.48553 c 5.56531,-2.64091 8.098,-8.3784 8.098,-18.34497 0,-8.93243 -3.03189,-15.17192 -8.78753,-18.0843 -6.95426,-3.5189 -16.49734,-0.63517 -20.62858,6.23356 -3.36493,5.59462 -3.36993,18.73178 -0.009,24.31894 4.36745,7.26096 13.25157,9.70898 21.32736,5.87677 z m 77.4901,10.51171 c -5.80874,-4.56915 -6.8921,-9.14727 -6.8921,-29.12497 l 0,-18.16515 -10.625,0 -10.625,0 0,24.375 0,24.375 -7.5,0 -7.5,0 0,-24.375 0,-24.375 -5,0 -5,0 0,-5.625 0,-5.625 4.82886,0 4.82886,0 0.63165,-7.86898 c 1.1974,-14.9171 7.22728,-21.14271 21.24515,-21.93479 l 8.46548,-0.47835 0,6.27212 0,6.27211 -4.82041,-0.64655 c -6.95117,-0.93235 -10.17959,2.79258 -10.17959,11.74514 l 0,6.6393 10.625,0 10.625,0 0,-6.90594 c 0,-7.4342 0.89499,-8.32501 10.2521,-10.20418 l 3.3771,-0.67822 0.3729,8.58167 0.3729,8.58167 7.1875,0.37488 7.1875,0.37488 0,5.56262 0,5.56262 -7.61988,0 -7.61986,0 0.43236,17.60195 c 0.38972,15.86535 0.67903,17.78549 2.93238,19.46236 1.68842,1.25647 4.0217,1.62437 7.1875,1.13328 l 4.6875,-0.72713 0,5.49398 c 0,6.30546 -1.17146,6.98954 -12.01893,7.01849 -4.68453,0.0125 -7.31494,-0.70741 -9.83897,-2.69281 z m -455.6421,-40.41512 0,-41.875 10.9375,0.004 10.9375,0.004 11.875,30.59423 c 6.53125,16.82682 12.15625,30.59761 12.5,30.60175 0.34375,0.004 6.18117,-13.76502 12.97205,-30.59813 l 12.34705,-30.6056 10.46545,0 10.46545,0 0,41.875 0,41.875 -7.4789,0 -7.4789,0 -0.3336,-32.1875 -0.3336,-32.1875 -12.6494,31.875 -12.64939,31.875 -5.47561,0.35042 -5.4756,0.35043 -12.44599,-31.37391 c -6.84528,-17.25565 -12.89216,-31.64966 -13.4375,-31.98669 -0.54532,-0.33704 -0.99151,13.76415 -0.99151,31.33598 l 0,31.94877 -6.875,0 -6.875,0 0,-41.875 z m 106.23575,41.5625 c -0.007,-0.17187 -0.14845,-13.67209 -0.3125,-30.00049 l -0.29825,-29.68798 7.1875,4.8e-4 7.1875,4.9e-4 0,30 0,30 -6.875,0 c -3.78125,0 -6.88141,-0.14062 -6.88925,-0.3125 z m 81.26425,-29.6875 0,-30 7.5,0 7.5,0 0.05,4.6875 0.05,4.6875 1.85664,-3.42179 c 2.32655,-4.28764 7.83378,-7.20321 13.60628,-7.20321 l 4.43708,0 0,7.383 0,7.383 -4.0625,-1.23414 c -5.45975,-1.6586 -10.26831,0.31014 -13.43225,5.49948 -2.20581,3.61787 -2.49645,6.30922 -2.50057,23.15616 l -0.005,19.0625 -7.5,0 -7.5,0 0,-30 z m -370,-48.75 0,-33.79083 33.4375,0.33291 33.4375,0.33292 0,33.125 0,33.125 -33.4375,0.33292 -33.4375,0.33291 0,-33.79083 z m 74.60364,32.93697 c -0.4695,-0.4695 -0.85364,-15.66614 -0.85364,-33.7703 l 0,-32.91667 33.77042,0 33.77042,0 -0.33293,33.4375 -0.33291,33.4375 -32.58386,0.33281 c -17.92112,0.18304 -32.968,-0.0513 -33.4375,-0.52084 z m 214.80885,-26.64555 c -7.03346,-7.77188 4.42612,-18.70281 11.83751,-11.29142 3.12333,3.12332 3.23014,8.95177 0.21407,11.68126 -3.12308,2.82637 -9.32245,2.62583 -12.05158,-0.38984 z"
         id="path7681"
         inkscape:connector-curvature="0" />
      <path
         style="fill:#f3bd13"
         d="m 432.76883,563.51012 c -5.35765,-1.44458 -13.76105,-5.87584 -19.15498,-10.10077 -2.29869,-1.8005 -2.26915,-1.98496 1.0048,-6.27735 l 3.37308,-4.42232 4.67925,3.76035 c 9.00463,7.23631 23.57269,10.4715 33.86336,7.52018 5.86512,-1.68209 12.34861,-8.29617 13.94544,-14.2263 1.70651,-6.33753 -1.12375,-14.30682 -6.77495,-19.07647 -2.18498,-1.84414 -11.28519,-6.83015 -20.22269,-11.08002 -8.9375,-4.24988 -18.15816,-9.34314 -20.49038,-11.31835 -12.86216,-10.89339 -11.28775,-33.24613 3.03582,-43.101 7.55456,-5.19768 18.97998,-7.93128 28.76845,-6.88303 7.67108,0.8215 21.85456,6.45079 23.67505,9.3964 0.93295,1.50954 -2.95219,10.01789 -4.57443,10.01789 -0.49059,0 -1.24459,-0.57054 -1.67555,-1.26786 -1.34451,-2.17547 -10.24576,-6.17956 -16.91878,-7.61068 -11.15823,-2.393 -23.54577,2.6293 -28.07149,11.38108 -1.03053,1.99282 -1.87369,6.00465 -1.87369,8.91519 0,8.09757 7.83059,14.94692 26.0913,22.82188 23.65344,10.20058 30.1587,17.33215 30.1587,33.06234 0,13.87872 -7.04952,23.92996 -19.84016,28.28818 -6.6448,2.26409 -20.97742,2.36328 -28.99815,0.20066 z m -97.41169,-56.41579 0,-56.875 5,0 5,0 0,56.875 0,56.875 -5,0 -5,0 0,-56.875 z m 42.5,0 0,-56.875 5,0 5,0 0,56.875 0,56.875 -5,0 -5,0 0,-56.875 z m -345,-105.625 0,-33.75 33.125,0 33.125,0 0,33.75 0,33.75 -33.125,0 -33.125,0 0,-33.75 z m 73.75,0 0,-33.79083 33.4375,0.33291 33.4375,0.33292 0,33.125 0,33.125 -33.4375,0.33291 -33.4375,0.33293 0,-33.79084 z m 258.41058,4.6713 c -24.32268,-7.97768 -26.28088,-45.50374 -2.99442,-57.38361 6.25939,-3.1933 17.27071,-4.27238 24.27134,-2.37851 l 5.3125,1.43718 0,6.23392 0,6.23392 -3.68792,-1.9071 c -5.27992,-2.73035 -14.81323,-2.43053 -19.82226,0.6234 -10.32023,6.29208 -11.83848,24.37743 -2.77539,33.06042 4.71432,4.51661 14.93848,5.81629 21.01903,2.67191 2.14082,-1.10705 4.20158,-2.01283 4.57946,-2.01283 0.37789,0 0.68708,2.51146 0.68708,5.58102 0,4.34792 -0.56644,5.88417 -2.5637,6.95307 -3.91967,2.09775 -18.67387,2.64258 -24.02572,0.88721 z m 95.33133,0.41077 c -13.75781,-4.18493 -19.99191,-13.43069 -19.99191,-29.64987 0,-10.99108 2.08815,-16.72651 8.47672,-23.2826 7.35587,-7.54874 21.31084,-10.43615 33.20927,-6.87129 6.81474,2.04174 15.1817,10.24569 16.92646,16.59669 1.75933,6.40401 1.76213,18.57981 0.006,25 -1.92527,7.03759 -11.4355,16.0286 -18.95772,17.92272 -6.41244,1.61467 -14.8922,1.73726 -19.66858,0.28435 z m 18.91864,-12.04009 c 4.90494,-2.53644 7.33945,-8.5487 7.33945,-18.12542 0,-13.69135 -5.26086,-19.91656 -16.83129,-19.91656 -7.9631,0 -13.96378,5.53391 -15.58752,14.375 -2.65326,14.44683 4.17334,25.625 15.64939,25.625 3.10396,0 7.34745,-0.88111 9.42997,-1.95802 z m 34.52695,11.70465 c -4.62688,-1.22888 -4.6875,-1.32593 -4.6875,-7.50454 0,-5.48543 0.27053,-6.14358 2.1875,-5.3217 11.57562,4.96289 18.98667,5.11537 21.92878,0.45116 2.73328,-4.33315 0.0606,-7.93211 -9.225,-12.4223 -11.48912,-5.55571 -14.89279,-9.49579 -14.8866,-17.23266 0.002,-3.65079 0.95018,-7.39242 2.52582,-9.97677 4.61101,-7.56296 17.32797,-10.92446 29.032,-7.67409 4.54104,1.26111 4.6875,1.47988 4.6875,7.00176 0,4.3642 -0.40891,5.54307 -1.74489,5.0304 -11.12936,-4.27073 -16.95577,-3.99297 -20.20314,0.96313 -2.99762,4.57496 -0.61771,7.53085 10.19438,12.66163 11.659,5.53268 14.6412,9.52959 13.85915,18.57482 -0.44283,5.12169 -1.28576,6.8617 -4.95155,10.22115 -6.88051,6.30551 -17.42897,8.22593 -28.71645,5.22802 z m 62.01024,0.31095 C 564.32936,403.7904 556.73399,394.136 555.67471,380.9397 c -1.66195,-20.70445 8.71967,-33.87827 27.91178,-35.41883 13.73567,-1.10256 24.0633,4.39127 29.98087,15.94846 3.34677,6.53632 3.10583,22.68567 -0.44077,29.54307 -6.9416,13.42168 -21.21549,19.35528 -37.32171,15.51451 z m 20.79705,-13.61006 c 8.90293,-8.90294 7.36362,-29.84 -2.56322,-34.86379 -1.68111,-0.85078 -5.65258,-1.55517 -8.8255,-1.5653 -10.14968,-0.0324 -16.10607,7.35721 -16.10607,19.98157 0,13.13882 5.87994,20 17.13972,20 5.80772,0 7.32214,-0.51955 10.35507,-3.55248 z m 76.25665,12.61304 c -6.95554,-3.47582 -8.05499,-7.17523 -8.54384,-28.74806 l -0.43198,-19.0625 -11.13781,0 -11.13781,0 0,24.375 0,24.375 -6.25,0 -6.25,0 0,-24.375 0,-24.375 -5,0 -5,0 0,-5.625 0,-5.625 5,0 5,0 0,-7.94015 c 0,-6.17647 0.62471,-8.85804 2.8125,-12.07256 4.81335,-7.07228 8.63319,-9.09731 17.4238,-9.23696 l 7.8887,-0.12533 0.36877,5.63848 0.36878,5.63849 -5.39429,-0.42903 c -7.30541,-0.58102 -9.92779,2.3274 -10.16649,11.27546 l -0.17677,6.6266 10.9375,0.36117 10.9375,0.36116 0,-6.87524 0,-6.87524 6.47688,-1.92342 c 3.56228,-1.05789 6.65603,-1.92343 6.875,-1.92343 0.21897,0 0.39812,3.9375 0.39812,8.75 l 0,8.75 7.1875,-9.5e-4 7.1875,-9.5e-4 -0.13784,5.31345 -0.13782,5.31345 -7.04968,0.37488 -7.04966,0.37488 0,16.53449 c 0,20.15684 1.08451,22.71691 9.23372,21.79678 l 5.14128,-0.58049 -0.14161,5.04842 c -0.10388,3.70349 -0.7699,5.29511 -2.5,5.97438 -4.23953,1.66451 -12.26888,1.14251 -16.73195,-1.08778 z m -456.25144,-40.98611 0,-41.92556 10.04397,0.36306 10.04398,0.36305 11.91931,30 c 6.55563,16.5 12.30146,30.38332 12.76853,30.85182 0.46706,0.4685 6.47421,-13.1628 13.34921,-30.29178 l 12.5,-31.14361 9.6875,-0.0207 9.6875,-0.0207 0,41.875 0,41.875 -6.85425,0 -6.85424,0 -0.33326,-32.8125 -0.33325,-32.8125 -13.0336,32.87357 -13.03361,32.87357 -4.8746,-0.37357 -4.87462,-0.37357 -12.72864,-31.4702 c -7.00077,-17.30861 -13.14519,-31.88673 -13.65429,-32.39583 -0.5091,-0.5091 -0.92564,13.79311 -0.92564,31.7827 l 0,32.70833 -6.25,0 -6.25,0 0,-41.92555 z m 105,11.92555 0,-30 6.25,0 6.25,0 0,30 0,30 -6.25,0 -6.25,0 0,-30 z m 82.5,0 0,-30 6.25,0 6.25,0 0,5 c 0,2.75 0.5625,5 1.25,5 0.6875,0 1.25,-0.7457 1.25,-1.65711 0,-4.2639 10.67782,-10.32125 15.88871,-9.0134 2.49053,0.62508 2.86129,1.50503 2.86129,6.79078 l 0,6.07264 -5.45084,-0.61439 c -6.92085,-0.78008 -11.13682,1.81973 -13.81817,8.52109 -1.47742,3.69242 -1.98099,9.39312 -1.98099,22.42569 l 0,17.4747 -6.25,0 -6.25,0 0,-30 z m -371.25,-49.375 0,-33.125 33.125,0 33.125,0 0,33.125 0,33.125 -33.125,0 -33.125,0 0,-33.125 z m 73.75,0 0,-33.125 33.08515,0 33.08515,0 0.35235,33.12585 0.35235,33.12585 -33.4375,-8.5e-4 -33.4375,-8.5e-4 0,-33.125 z m 216.5625,7.49423 c -3.53262,-2.52589 -3.71084,-8.16878 -0.35393,-11.20674 6.98207,-6.31868 17.782,2.25383 12.22893,9.70676 -2.31789,3.1109 -8.52541,3.895 -11.875,1.49998 z"
         id="path7679"
         inkscape:connector-curvature="0" />
      <path
         style="fill:#04adee"
         d="m 432.76883,563.51012 c -5.35765,-1.44458 -13.76105,-5.87584 -19.15498,-10.10077 -2.29869,-1.8005 -2.26915,-1.98496 1.0048,-6.27735 l 3.37308,-4.42232 4.67925,3.76035 c 9.00463,7.23631 23.57269,10.4715 33.86336,7.52018 5.86512,-1.68209 12.34861,-8.29617 13.94544,-14.2263 1.70651,-6.33753 -1.12375,-14.30682 -6.77495,-19.07647 -2.18498,-1.84414 -11.28519,-6.83015 -20.22269,-11.08002 -8.9375,-4.24988 -18.15816,-9.34314 -20.49038,-11.31835 -12.86216,-10.89339 -11.28775,-33.24613 3.03582,-43.101 7.55456,-5.19768 18.97998,-7.93128 28.76845,-6.88303 7.67108,0.8215 21.85456,6.45079 23.67505,9.3964 0.93295,1.50954 -2.95219,10.01789 -4.57443,10.01789 -0.49059,0 -1.24459,-0.57054 -1.67555,-1.26786 -1.34451,-2.17547 -10.24576,-6.17956 -16.91878,-7.61068 -11.15823,-2.393 -23.54577,2.6293 -28.07149,11.38108 -1.03053,1.99282 -1.87369,6.00465 -1.87369,8.91519 0,8.09757 7.83059,14.94692 26.0913,22.82188 23.65344,10.20058 30.1587,17.33215 30.1587,33.06234 0,13.87872 -7.04952,23.92996 -19.84016,28.28818 -6.6448,2.26409 -20.97742,2.36328 -28.99815,0.20066 z m -97.41169,-56.41579 0,-56.875 5,0 5,0 0,56.875 0,56.875 -5,0 -5,0 0,-56.875 z m 42.5,0 0,-56.875 5,0 5,0 0,56.875 0,56.875 -5,0 -5,0 0,-56.875 z m -345,-105.625 0,-33.75 33.125,0 33.125,0 0,33.75 0,33.75 -33.125,0 -33.125,0 0,-33.75 z m 332.16057,4.6713 c -24.32267,-7.97768 -26.28087,-45.50374 -2.99441,-57.38361 6.25939,-3.1933 17.27071,-4.27238 24.27134,-2.37851 l 5.3125,1.43718 0,6.23392 0,6.23392 -3.68792,-1.9071 c -5.27992,-2.73035 -14.81323,-2.43053 -19.82226,0.6234 -10.32023,6.29208 -11.83848,24.37743 -2.77539,33.06042 4.71432,4.51661 14.93848,5.81629 21.01903,2.67191 2.14082,-1.10705 4.20158,-2.01283 4.57946,-2.01283 0.37789,0 0.68708,2.51146 0.68708,5.58102 0,4.34792 -0.56644,5.88417 -2.5637,6.95307 -3.91967,2.09775 -18.67387,2.64258 -24.02572,0.88721 z m 95.33134,0.41077 c -13.75781,-4.18493 -19.99191,-13.43069 -19.99191,-29.64987 0,-10.99108 2.08815,-16.72651 8.47672,-23.2826 7.35587,-7.54874 21.31084,-10.43615 33.20927,-6.87129 6.81474,2.04174 15.1817,10.24569 16.92646,16.59669 1.75933,6.40401 1.76213,18.57981 0.006,25 -1.92527,7.03759 -11.4355,16.0286 -18.95772,17.92272 -6.41244,1.61467 -14.8922,1.73726 -19.66858,0.28435 z m 18.91864,-12.04009 c 4.90494,-2.53644 7.33945,-8.5487 7.33945,-18.12542 0,-13.69135 -5.26086,-19.91656 -16.83129,-19.91656 -7.9631,0 -13.96378,5.53391 -15.58752,14.375 -2.65326,14.44683 4.17334,25.625 15.64939,25.625 3.10396,0 7.34745,-0.88111 9.42997,-1.95802 z m 34.52695,11.70465 c -4.62688,-1.22888 -4.6875,-1.32593 -4.6875,-7.50454 0,-5.48543 0.27053,-6.14358 2.1875,-5.3217 11.57562,4.96289 18.98667,5.11537 21.92878,0.45116 2.73328,-4.33315 0.0606,-7.93211 -9.225,-12.4223 -11.48912,-5.55571 -14.89279,-9.49579 -14.8866,-17.23266 0.002,-3.65079 0.95018,-7.39242 2.52582,-9.97677 4.61101,-7.56296 17.32797,-10.92446 29.032,-7.67409 4.54104,1.26111 4.6875,1.47988 4.6875,7.00176 0,4.3642 -0.40891,5.54307 -1.74489,5.0304 -11.12936,-4.27073 -16.95577,-3.99297 -20.20314,0.96313 -2.99762,4.57496 -0.61771,7.53085 10.19438,12.66163 11.659,5.53268 14.6412,9.52959 13.85915,18.57482 -0.44283,5.12169 -1.28576,6.8617 -4.95155,10.22115 -6.88051,6.30551 -17.42897,8.22593 -28.71645,5.22802 z m 62.01024,0.31095 C 564.32936,403.7904 556.73399,394.136 555.67471,380.9397 c -1.66195,-20.70445 8.71967,-33.87827 27.91178,-35.41883 13.73567,-1.10256 24.0633,4.39127 29.98087,15.94846 3.34677,6.53632 3.10583,22.68567 -0.44077,29.54307 -6.9416,13.42168 -21.21549,19.35528 -37.32171,15.51451 z m 20.79705,-13.61006 c 8.90293,-8.90294 7.36362,-29.84 -2.56322,-34.86379 -1.68111,-0.85078 -5.65258,-1.55517 -8.8255,-1.5653 -10.14968,-0.0324 -16.10607,7.35721 -16.10607,19.98157 0,13.13882 5.87994,20 17.13972,20 5.80772,0 7.32214,-0.51955 10.35507,-3.55248 z m 76.25665,12.61304 c -6.95554,-3.47582 -8.05499,-7.17523 -8.54384,-28.74806 l -0.43198,-19.0625 -11.13781,0 -11.13781,0 0,24.375 0,24.375 -6.25,0 -6.25,0 0,-24.375 0,-24.375 -5,0 -5,0 0,-5.625 0,-5.625 5,0 5,0 0,-7.94015 c 0,-6.17647 0.62471,-8.85804 2.8125,-12.07256 4.81335,-7.07228 8.63319,-9.09731 17.4238,-9.23696 l 7.8887,-0.12533 0.36877,5.63848 0.36878,5.63849 -5.39429,-0.42903 c -7.30541,-0.58102 -9.92779,2.3274 -10.16649,11.27546 l -0.17677,6.6266 10.9375,0.36117 10.9375,0.36116 0,-6.87524 0,-6.87524 6.47688,-1.92342 c 3.56228,-1.05789 6.65603,-1.92343 6.875,-1.92343 0.21897,0 0.39812,3.9375 0.39812,8.75 l 0,8.75 7.1875,-9.5e-4 7.1875,-9.5e-4 -0.13784,5.31345 -0.13782,5.31345 -7.04968,0.37488 -7.04966,0.37488 0,16.53449 c 0,20.15684 1.08451,22.71691 9.23372,21.79678 l 5.14128,-0.58049 -0.14161,5.04842 c -0.10388,3.70349 -0.7699,5.29511 -2.5,5.97438 -4.23953,1.66451 -12.26888,1.14251 -16.73195,-1.08778 z m -456.25144,-40.98611 0,-41.92556 10.04397,0.36306 10.04398,0.36305 11.91931,30 c 6.55563,16.5 12.30146,30.38332 12.76853,30.85182 0.46706,0.4685 6.47421,-13.1628 13.34921,-30.29178 l 12.5,-31.14361 9.6875,-0.0207 9.6875,-0.0207 0,41.875 0,41.875 -6.85425,0 -6.85424,0 -0.33326,-32.8125 -0.33325,-32.8125 -13.0336,32.87357 -13.03361,32.87357 -4.8746,-0.37357 -4.87462,-0.37357 -12.72864,-31.4702 c -7.00077,-17.30861 -13.14519,-31.88673 -13.65429,-32.39583 -0.5091,-0.5091 -0.92564,13.79311 -0.92564,31.7827 l 0,32.70833 -6.25,0 -6.25,0 0,-41.92555 z m 105,11.92555 0,-30 6.25,0 6.25,0 0,30 0,30 -6.25,0 -6.25,0 0,-30 z m 82.5,0 0,-30 6.25,0 6.25,0 0,5 c 0,2.75 0.5625,5 1.25,5 0.6875,0 1.25,-0.7457 1.25,-1.65711 0,-4.2639 10.67782,-10.32125 15.88871,-9.0134 2.49053,0.62508 2.86129,1.50503 2.86129,6.79078 l 0,6.07264 -5.45084,-0.61439 c -6.92085,-0.78008 -11.13682,1.81973 -13.81817,8.52109 -1.47742,3.69242 -1.98099,9.39312 -1.98099,22.42569 l 0,17.4747 -6.25,0 -6.25,0 0,-30 z m -371.25,-49.375 0,-33.125 33.125,0 33.125,0 0,33.125 0,33.125 -33.125,0 -33.125,0 0,-33.125 z m 73.75,0 0,-33.125 33.08515,0 33.08515,0 0.35235,33.12585 0.35235,33.12585 -33.4375,-8.5e-4 -33.4375,-8.5e-4 0,-33.125 z m 216.5625,7.49423 c -3.53262,-2.52589 -3.71084,-8.16878 -0.35393,-11.20674 6.98207,-6.31868 17.782,2.25383 12.22893,9.70676 -2.31789,3.1109 -8.52541,3.895 -11.875,1.49998 z"
         id="path7677"
         inkscape:connector-curvature="0" />
      <path
         style="fill:#7fcb27"
         d="m 432.76883,563.51012 c -5.35765,-1.44458 -13.76105,-5.87584 -19.15498,-10.10077 -2.29869,-1.8005 -2.26915,-1.98496 1.0048,-6.27735 l 3.37308,-4.42232 4.67925,3.76035 c 9.00463,7.23631 23.57269,10.4715 33.86336,7.52018 5.86512,-1.68209 12.34861,-8.29617 13.94544,-14.2263 1.70651,-6.33753 -1.12375,-14.30682 -6.77495,-19.07647 -2.18498,-1.84414 -11.28519,-6.83015 -20.22269,-11.08002 -8.9375,-4.24988 -18.15816,-9.34314 -20.49038,-11.31835 -12.86216,-10.89339 -11.28775,-33.24613 3.03582,-43.101 7.55456,-5.19768 18.97998,-7.93128 28.76845,-6.88303 7.67108,0.8215 21.85456,6.45079 23.67505,9.3964 0.93295,1.50954 -2.95219,10.01789 -4.57443,10.01789 -0.49059,0 -1.24459,-0.57054 -1.67555,-1.26786 -1.34451,-2.17547 -10.24576,-6.17956 -16.91878,-7.61068 -11.15823,-2.393 -23.54577,2.6293 -28.07149,11.38108 -1.03053,1.99282 -1.87369,6.00465 -1.87369,8.91519 0,8.09757 7.83059,14.94692 26.0913,22.82188 23.65344,10.20058 30.1587,17.33215 30.1587,33.06234 0,13.87872 -7.04952,23.92996 -19.84016,28.28818 -6.6448,2.26409 -20.97742,2.36328 -28.99815,0.20066 z m -97.41169,-56.41579 0,-56.875 5,0 5,0 0,56.875 0,56.875 -5,0 -5,0 0,-56.875 z m 42.5,0 0,-56.875 5,0 5,0 0,56.875 0,56.875 -5,0 -5,0 0,-56.875 z m -12.83943,-100.9537 c -24.32267,-7.97768 -26.28087,-45.50374 -2.99441,-57.38361 6.25939,-3.1933 17.27071,-4.27238 24.27134,-2.37851 l 5.3125,1.43718 0,6.23392 0,6.23392 -3.68792,-1.9071 c -5.27992,-2.73035 -14.81323,-2.43053 -19.82226,0.6234 -10.32023,6.29208 -11.83848,24.37743 -2.77539,33.06042 4.71432,4.51661 14.93848,5.81629 21.01903,2.67191 2.14082,-1.10705 4.20158,-2.01283 4.57946,-2.01283 0.37789,0 0.68708,2.51146 0.68708,5.58102 0,4.34792 -0.56644,5.88417 -2.5637,6.95307 -3.91967,2.09775 -18.67387,2.64258 -24.02572,0.88721 z m 95.33134,0.41077 c -13.75781,-4.18493 -19.99191,-13.43069 -19.99191,-29.64987 0,-10.99108 2.08815,-16.72651 8.47672,-23.2826 7.35587,-7.54874 21.31084,-10.43615 33.20927,-6.87129 6.81474,2.04174 15.1817,10.24569 16.92646,16.59669 1.75933,6.40401 1.76213,18.57981 0.006,25 -1.92527,7.03759 -11.4355,16.0286 -18.95772,17.92272 -6.41244,1.61467 -14.8922,1.73726 -19.66858,0.28435 z m 18.91864,-12.04009 c 4.90494,-2.53644 7.33945,-8.5487 7.33945,-18.12542 0,-13.69135 -5.26086,-19.91656 -16.83129,-19.91656 -7.9631,0 -13.96378,5.53391 -15.58752,14.375 -2.65326,14.44683 4.17334,25.625 15.64939,25.625 3.10396,0 7.34745,-0.88111 9.42997,-1.95802 z m 34.52695,11.70465 c -4.62688,-1.22888 -4.6875,-1.32593 -4.6875,-7.50454 0,-5.48543 0.27053,-6.14358 2.1875,-5.3217 11.57562,4.96289 18.98667,5.11537 21.92878,0.45116 2.73328,-4.33315 0.0606,-7.93211 -9.225,-12.4223 -11.48912,-5.55571 -14.89279,-9.49579 -14.8866,-17.23266 0.002,-3.65079 0.95018,-7.39242 2.52582,-9.97677 4.61101,-7.56296 17.32797,-10.92446 29.032,-7.67409 4.54104,1.26111 4.6875,1.47988 4.6875,7.00176 0,4.3642 -0.40891,5.54307 -1.74489,5.0304 -11.12936,-4.27073 -16.95577,-3.99297 -20.20314,0.96313 -2.99762,4.57496 -0.61771,7.53085 10.19438,12.66163 11.659,5.53268 14.6412,9.52959 13.85915,18.57482 -0.44283,5.12169 -1.28576,6.8617 -4.95155,10.22115 -6.88051,6.30551 -17.42897,8.22593 -28.71645,5.22802 z m 62.01024,0.31095 C 564.32936,403.7904 556.73399,394.136 555.67471,380.9397 c -1.66195,-20.70445 8.71967,-33.87827 27.91178,-35.41883 13.73567,-1.10256 24.0633,4.39127 29.98087,15.94846 3.34677,6.53632 3.10583,22.68567 -0.44077,29.54307 -6.9416,13.42168 -21.21549,19.35528 -37.32171,15.51451 z m 20.79705,-13.61006 c 8.90293,-8.90294 7.36362,-29.84 -2.56322,-34.86379 -1.68111,-0.85078 -5.65258,-1.55517 -8.8255,-1.5653 -10.14968,-0.0324 -16.10607,7.35721 -16.10607,19.98157 0,13.13882 5.87994,20 17.13972,20 5.80772,0 7.32214,-0.51955 10.35507,-3.55248 z m 76.25665,12.61304 c -6.95554,-3.47582 -8.05499,-7.17523 -8.54384,-28.74806 l -0.43198,-19.0625 -11.13781,0 -11.13781,0 0,24.375 0,24.375 -6.25,0 -6.25,0 0,-24.375 0,-24.375 -5,0 -5,0 0,-5.625 0,-5.625 5,0 5,0 0,-7.94015 c 0,-6.17647 0.62471,-8.85804 2.8125,-12.07256 4.81335,-7.07228 8.63319,-9.09731 17.4238,-9.23696 l 7.8887,-0.12533 0.36877,5.63848 0.36878,5.63849 -5.39429,-0.42903 c -7.30541,-0.58102 -9.92779,2.3274 -10.16649,11.27546 l -0.17677,6.6266 10.9375,0.36117 10.9375,0.36116 0,-6.87524 0,-6.87524 6.47688,-1.92342 c 3.56228,-1.05789 6.65603,-1.92343 6.875,-1.92343 0.21897,0 0.39812,3.9375 0.39812,8.75 l 0,8.75 7.1875,-9.5e-4 7.1875,-9.5e-4 -0.13784,5.31345 -0.13782,5.31345 -7.04968,0.37488 -7.04966,0.37488 0,16.53449 c 0,20.15684 1.08451,22.71691 9.23372,21.79678 l 5.14128,-0.58049 -0.14161,5.04842 c -0.10388,3.70349 -0.7699,5.29511 -2.5,5.97438 -4.23953,1.66451 -12.26888,1.14251 -16.73195,-1.08778 z m -456.25144,-40.98611 0,-41.92556 10.04397,0.36306 10.04398,0.36305 11.91931,30 c 6.55563,16.5 12.30146,30.38332 12.76853,30.85182 0.46706,0.4685 6.47421,-13.1628 13.34921,-30.29178 l 12.5,-31.14361 9.6875,-0.0207 9.6875,-0.0207 0,41.875 0,41.875 -6.85425,0 -6.85424,0 -0.33326,-32.8125 -0.33325,-32.8125 -13.0336,32.87357 -13.03361,32.87357 -4.8746,-0.37357 -4.87462,-0.37357 -12.72864,-31.4702 c -7.00077,-17.30861 -13.14519,-31.88673 -13.65429,-32.39583 -0.5091,-0.5091 -0.92564,13.79311 -0.92564,31.7827 l 0,32.70833 -6.25,0 -6.25,0 0,-41.92555 z m 105,11.92555 0,-30 6.25,0 6.25,0 0,30 0,30 -6.25,0 -6.25,0 0,-30 z m 82.5,0 0,-30 6.25,0 6.25,0 0,5 c 0,2.75 0.5625,5 1.25,5 0.6875,0 1.25,-0.7457 1.25,-1.65711 0,-4.2639 10.67782,-10.32125 15.88871,-9.0134 2.49053,0.62508 2.86129,1.50503 2.86129,6.79078 l 0,6.07264 -5.45084,-0.61439 c -6.92085,-0.78008 -11.13682,1.81973 -13.81817,8.52109 -1.47742,3.69242 -1.98099,9.39312 -1.98099,22.42569 l 0,17.4747 -6.25,0 -6.25,0 0,-30 z m -371.25,-49.375 0,-33.125 33.125,0 33.125,0 0,33.125 0,33.125 -33.125,0 -33.125,0 0,-33.125 z m 73.75,0 0,-33.125 33.08515,0 33.08515,0 0.35235,33.12585 0.35235,33.12585 -33.4375,-8.5e-4 -33.4375,-8.5e-4 0,-33.125 z m 216.5625,7.49423 c -3.53262,-2.52589 -3.71084,-8.16878 -0.35393,-11.20674 6.98207,-6.31868 17.782,2.25383 12.22893,9.70676 -2.31789,3.1109 -8.52541,3.895 -11.875,1.49998 z"
         id="path7675"
         inkscape:connector-curvature="0" />
      <path
         style="fill:#f0501a"
         d="m 432.76883,563.51012 c -5.35765,-1.44458 -13.76105,-5.87584 -19.15498,-10.10077 -2.29869,-1.8005 -2.26915,-1.98496 1.0048,-6.27735 l 3.37308,-4.42232 4.67925,3.76035 c 9.00463,7.23631 23.57269,10.4715 33.86336,7.52018 5.86512,-1.68209 12.34861,-8.29617 13.94544,-14.2263 1.70651,-6.33753 -1.12375,-14.30682 -6.77495,-19.07647 -2.18498,-1.84414 -11.28519,-6.83015 -20.22269,-11.08002 -8.9375,-4.24988 -18.15816,-9.34314 -20.49038,-11.31835 -12.86216,-10.89339 -11.28775,-33.24613 3.03582,-43.101 7.55456,-5.19768 18.97998,-7.93128 28.76845,-6.88303 7.67108,0.8215 21.85456,6.45079 23.67505,9.3964 0.93295,1.50954 -2.95219,10.01789 -4.57443,10.01789 -0.49059,0 -1.24459,-0.57054 -1.67555,-1.26786 -1.34451,-2.17547 -10.24576,-6.17956 -16.91878,-7.61068 -11.15823,-2.393 -23.54577,2.6293 -28.07149,11.38108 -1.03053,1.99282 -1.87369,6.00465 -1.87369,8.91519 0,8.09757 7.83059,14.94692 26.0913,22.82188 23.65344,10.20058 30.1587,17.33215 30.1587,33.06234 0,13.87872 -7.04952,23.92996 -19.84016,28.28818 -6.6448,2.26409 -20.97742,2.36328 -28.99815,0.20066 z m -97.41169,-56.41579 0,-56.875 5,0 5,0 0,56.875 0,56.875 -5,0 -5,0 0,-56.875 z m 42.5,0 0,-56.875 5,0 5,0 0,56.875 0,56.875 -5,0 -5,0 0,-56.875 z m -12.83943,-100.9537 c -24.32267,-7.97768 -26.28087,-45.50374 -2.99441,-57.38361 6.25939,-3.1933 17.27071,-4.27238 24.27134,-2.37851 l 5.3125,1.43718 0,6.23392 0,6.23392 -3.68792,-1.9071 c -5.27992,-2.73035 -14.81323,-2.43053 -19.82226,0.6234 -10.32023,6.29208 -11.83848,24.37743 -2.77539,33.06042 4.71432,4.51661 14.93848,5.81629 21.01903,2.67191 2.14082,-1.10705 4.20158,-2.01283 4.57946,-2.01283 0.37789,0 0.68708,2.51146 0.68708,5.58102 0,4.34792 -0.56644,5.88417 -2.5637,6.95307 -3.91967,2.09775 -18.67387,2.64258 -24.02572,0.88721 z m 95.33134,0.41077 c -13.75781,-4.18493 -19.99191,-13.43069 -19.99191,-29.64987 0,-10.99108 2.08815,-16.72651 8.47672,-23.2826 7.35587,-7.54874 21.31084,-10.43615 33.20927,-6.87129 6.81474,2.04174 15.1817,10.24569 16.92646,16.59669 1.75933,6.40401 1.76213,18.57981 0.006,25 -1.92527,7.03759 -11.4355,16.0286 -18.95772,17.92272 -6.41244,1.61467 -14.8922,1.73726 -19.66858,0.28435 z m 18.91864,-12.04009 c 4.90494,-2.53644 7.33945,-8.5487 7.33945,-18.12542 0,-13.69135 -5.26086,-19.91656 -16.83129,-19.91656 -7.9631,0 -13.96378,5.53391 -15.58752,14.375 -2.65326,14.44683 4.17334,25.625 15.64939,25.625 3.10396,0 7.34745,-0.88111 9.42997,-1.95802 z m 34.52695,11.70465 c -4.62688,-1.22888 -4.6875,-1.32593 -4.6875,-7.50454 0,-5.48543 0.27053,-6.14358 2.1875,-5.3217 11.57562,4.96289 18.98667,5.11537 21.92878,0.45116 2.73328,-4.33315 0.0606,-7.93211 -9.225,-12.4223 -11.48912,-5.55571 -14.89279,-9.49579 -14.8866,-17.23266 0.002,-3.65079 0.95018,-7.39242 2.52582,-9.97677 4.61101,-7.56296 17.32797,-10.92446 29.032,-7.67409 4.54104,1.26111 4.6875,1.47988 4.6875,7.00176 0,4.3642 -0.40891,5.54307 -1.74489,5.0304 -11.12936,-4.27073 -16.95577,-3.99297 -20.20314,0.96313 -2.99762,4.57496 -0.61771,7.53085 10.19438,12.66163 11.659,5.53268 14.6412,9.52959 13.85915,18.57482 -0.44283,5.12169 -1.28576,6.8617 -4.95155,10.22115 -6.88051,6.30551 -17.42897,8.22593 -28.71645,5.22802 z m 62.01024,0.31095 C 564.32936,403.7904 556.73399,394.136 555.67471,380.9397 c -1.66195,-20.70445 8.71967,-33.87827 27.91178,-35.41883 13.73567,-1.10256 24.0633,4.39127 29.98087,15.94846 3.34677,6.53632 3.10583,22.68567 -0.44077,29.54307 -6.9416,13.42168 -21.21549,19.35528 -37.32171,15.51451 z m 20.79705,-13.61006 c 8.90293,-8.90294 7.36362,-29.84 -2.56322,-34.86379 -1.68111,-0.85078 -5.65258,-1.55517 -8.8255,-1.5653 -10.14968,-0.0324 -16.10607,7.35721 -16.10607,19.98157 0,13.13882 5.87994,20 17.13972,20 5.80772,0 7.32214,-0.51955 10.35507,-3.55248 z m 76.25665,12.61304 c -6.95554,-3.47582 -8.05499,-7.17523 -8.54384,-28.74806 l -0.43198,-19.0625 -11.13781,0 -11.13781,0 0,24.375 0,24.375 -6.25,0 -6.25,0 0,-24.375 0,-24.375 -5,0 -5,0 0,-5.625 0,-5.625 5,0 5,0 0,-7.94015 c 0,-6.17647 0.62471,-8.85804 2.8125,-12.07256 4.81335,-7.07228 8.63319,-9.09731 17.4238,-9.23696 l 7.8887,-0.12533 0.36877,5.63848 0.36878,5.63849 -5.39429,-0.42903 c -7.30541,-0.58102 -9.92779,2.3274 -10.16649,11.27546 l -0.17677,6.6266 10.9375,0.36117 10.9375,0.36116 0,-6.87524 0,-6.87524 6.47688,-1.92342 c 3.56228,-1.05789 6.65603,-1.92343 6.875,-1.92343 0.21897,0 0.39812,3.9375 0.39812,8.75 l 0,8.75 7.1875,-9.5e-4 7.1875,-9.5e-4 -0.13784,5.31345 -0.13782,5.31345 -7.04968,0.37488 -7.04966,0.37488 0,16.53449 c 0,20.15684 1.08451,22.71691 9.23372,21.79678 l 5.14128,-0.58049 -0.14161,5.04842 c -0.10388,3.70349 -0.7699,5.29511 -2.5,5.97438 -4.23953,1.66451 -12.26888,1.14251 -16.73195,-1.08778 z m -456.25144,-40.98611 0,-41.92556 10.04397,0.36306 10.04398,0.36305 11.91931,30 c 6.55563,16.5 12.30146,30.38332 12.76853,30.85182 0.46706,0.4685 6.47421,-13.1628 13.34921,-30.29178 l 12.5,-31.14361 9.6875,-0.0207 9.6875,-0.0207 0,41.875 0,41.875 -6.85425,0 -6.85424,0 -0.33326,-32.8125 -0.33325,-32.8125 -13.0336,32.87357 -13.03361,32.87357 -4.8746,-0.37357 -4.87462,-0.37357 -12.72864,-31.4702 c -7.00077,-17.30861 -13.14519,-31.88673 -13.65429,-32.39583 -0.5091,-0.5091 -0.92564,13.79311 -0.92564,31.7827 l 0,32.70833 -6.25,0 -6.25,0 0,-41.92555 z m 105,11.92555 0,-30 6.25,0 6.25,0 0,30 0,30 -6.25,0 -6.25,0 0,-30 z m 82.5,0 0,-30 6.25,0 6.25,0 0,5 c 0,2.75 0.5625,5 1.25,5 0.6875,0 1.25,-0.7457 1.25,-1.65711 0,-4.2639 10.67782,-10.32125 15.88871,-9.0134 2.49053,0.62508 2.86129,1.50503 2.86129,6.79078 l 0,6.07264 -5.45084,-0.61439 c -6.92085,-0.78008 -11.13682,1.81973 -13.81817,8.52109 -1.47742,3.69242 -1.98099,9.39312 -1.98099,22.42569 l 0,17.4747 -6.25,0 -6.25,0 0,-30 z m -371.25,-49.375 0,-33.125 33.125,0 33.125,0 0,33.125 0,33.125 -33.125,0 -33.125,0 0,-33.125 z m 290.3125,7.49423 c -3.53262,-2.52589 -3.71084,-8.16878 -0.35393,-11.20674 6.98207,-6.31868 17.782,2.25383 12.22893,9.70676 -2.31789,3.1109 -8.52541,3.895 -11.875,1.49998 z"
         id="path7673"
         inkscape:connector-curvature="0" />
      <path
         style="fill:#6c6a6b"
         d="m 432.76883,563.51012 c -5.35765,-1.44458 -13.76105,-5.87584 -19.15498,-10.10077 -2.29869,-1.8005 -2.26915,-1.98496 1.0048,-6.27735 l 3.37308,-4.42232 4.67925,3.76035 c 9.00463,7.23631 23.57269,10.4715 33.86336,7.52018 5.86512,-1.68209 12.34861,-8.29617 13.94544,-14.2263 1.70651,-6.33753 -1.12375,-14.30682 -6.77495,-19.07647 -2.18498,-1.84414 -11.28519,-6.83015 -20.22269,-11.08002 -8.9375,-4.24988 -18.15816,-9.34314 -20.49038,-11.31835 -12.86216,-10.89339 -11.28775,-33.24613 3.03582,-43.101 7.55456,-5.19768 18.97998,-7.93128 28.76845,-6.88303 7.67108,0.8215 21.85456,6.45079 23.67505,9.3964 0.93295,1.50954 -2.95219,10.01789 -4.57443,10.01789 -0.49059,0 -1.24459,-0.57054 -1.67555,-1.26786 -1.34451,-2.17547 -10.24576,-6.17956 -16.91878,-7.61068 -11.15823,-2.393 -23.54577,2.6293 -28.07149,11.38108 -1.03053,1.99282 -1.87369,6.00465 -1.87369,8.91519 0,8.09757 7.83059,14.94692 26.0913,22.82188 23.65344,10.20058 30.1587,17.33215 30.1587,33.06234 0,13.87872 -7.04952,23.92996 -19.84016,28.28818 -6.6448,2.26409 -20.97742,2.36328 -28.99815,0.20066 z m -97.41169,-56.41579 0,-56.875 5,0 5,0 0,56.875 0,56.875 -5,0 -5,0 0,-56.875 z m 42.5,0 0,-56.875 5,0 5,0 0,56.875 0,56.875 -5,0 -5,0 0,-56.875 z m -12.83943,-100.9537 c -24.32267,-7.97768 -26.28087,-45.50374 -2.99441,-57.38361 6.25939,-3.1933 17.27071,-4.27238 24.27134,-2.37851 l 5.3125,1.43718 0,6.23392 0,6.23392 -3.68792,-1.9071 c -5.27992,-2.73035 -14.81323,-2.43053 -19.82226,0.6234 -10.32023,6.29208 -11.83848,24.37743 -2.77539,33.06042 4.71432,4.51661 14.93848,5.81629 21.01903,2.67191 2.14082,-1.10705 4.20158,-2.01283 4.57946,-2.01283 0.37789,0 0.68708,2.51146 0.68708,5.58102 0,4.34792 -0.56644,5.88417 -2.5637,6.95307 -3.91967,2.09775 -18.67387,2.64258 -24.02572,0.88721 z m 95.33134,0.41077 c -13.75781,-4.18493 -19.99191,-13.43069 -19.99191,-29.64987 0,-10.99108 2.08815,-16.72651 8.47672,-23.2826 7.35587,-7.54874 21.31084,-10.43615 33.20927,-6.87129 6.81474,2.04174 15.1817,10.24569 16.92646,16.59669 1.75933,6.40401 1.76213,18.57981 0.006,25 -1.92527,7.03759 -11.4355,16.0286 -18.95772,17.92272 -6.41244,1.61467 -14.8922,1.73726 -19.66858,0.28435 z m 18.91864,-12.04009 c 4.90494,-2.53644 7.33945,-8.5487 7.33945,-18.12542 0,-13.69135 -5.26086,-19.91656 -16.83129,-19.91656 -7.9631,0 -13.96378,5.53391 -15.58752,14.375 -2.65326,14.44683 4.17334,25.625 15.64939,25.625 3.10396,0 7.34745,-0.88111 9.42997,-1.95802 z m 34.52695,11.70465 c -4.62688,-1.22888 -4.6875,-1.32593 -4.6875,-7.50454 0,-5.48543 0.27053,-6.14358 2.1875,-5.3217 11.57562,4.96289 18.98667,5.11537 21.92878,0.45116 2.73328,-4.33315 0.0606,-7.93211 -9.225,-12.4223 -11.48912,-5.55571 -14.89279,-9.49579 -14.8866,-17.23266 0.002,-3.65079 0.95018,-7.39242 2.52582,-9.97677 4.61101,-7.56296 17.32797,-10.92446 29.032,-7.67409 4.54104,1.26111 4.6875,1.47988 4.6875,7.00176 0,4.3642 -0.40891,5.54307 -1.74489,5.0304 -11.12936,-4.27073 -16.95577,-3.99297 -20.20314,0.96313 -2.99762,4.57496 -0.61771,7.53085 10.19438,12.66163 11.659,5.53268 14.6412,9.52959 13.85915,18.57482 -0.44283,5.12169 -1.28576,6.8617 -4.95155,10.22115 -6.88051,6.30551 -17.42897,8.22593 -28.71645,5.22802 z m 62.01024,0.31095 C 564.32936,403.7904 556.73399,394.136 555.67471,380.9397 c -1.66195,-20.70445 8.71967,-33.87827 27.91178,-35.41883 13.73567,-1.10256 24.0633,4.39127 29.98087,15.94846 3.34677,6.53632 3.10583,22.68567 -0.44077,29.54307 -6.9416,13.42168 -21.21549,19.35528 -37.32171,15.51451 z m 20.79705,-13.61006 c 8.90293,-8.90294 7.36362,-29.84 -2.56322,-34.86379 -1.68111,-0.85078 -5.65258,-1.55517 -8.8255,-1.5653 -10.14968,-0.0324 -16.10607,7.35721 -16.10607,19.98157 0,13.13882 5.87994,20 17.13972,20 5.80772,0 7.32214,-0.51955 10.35507,-3.55248 z m 76.25665,12.61304 c -6.95554,-3.47582 -8.05499,-7.17523 -8.54384,-28.74806 l -0.43198,-19.0625 -11.13781,0 -11.13781,0 0,24.375 0,24.375 -6.25,0 -6.25,0 0,-24.375 0,-24.375 -5,0 -5,0 0,-5.625 0,-5.625 5,0 5,0 0,-7.94015 c 0,-6.17647 0.62471,-8.85804 2.8125,-12.07256 4.81335,-7.07228 8.63319,-9.09731 17.4238,-9.23696 l 7.8887,-0.12533 0.36877,5.63848 0.36878,5.63849 -5.39429,-0.42903 c -7.30541,-0.58102 -9.92779,2.3274 -10.16649,11.27546 l -0.17677,6.6266 10.9375,0.36117 10.9375,0.36116 0,-6.87524 0,-6.87524 6.47688,-1.92342 c 3.56228,-1.05789 6.65603,-1.92343 6.875,-1.92343 0.21897,0 0.39812,3.9375 0.39812,8.75 l 0,8.75 7.1875,-9.5e-4 7.1875,-9.5e-4 -0.13784,5.31345 -0.13782,5.31345 -7.04968,0.37488 -7.04966,0.37488 0,16.53449 c 0,20.15684 1.08451,22.71691 9.23372,21.79678 l 5.14128,-0.58049 -0.14161,5.04842 c -0.10388,3.70349 -0.7699,5.29511 -2.5,5.97438 -4.23953,1.66451 -12.26888,1.14251 -16.73195,-1.08778 z m -456.25144,-40.98611 0,-41.92556 10.04397,0.36306 10.04398,0.36305 11.91931,30 c 6.55563,16.5 12.30146,30.38332 12.76853,30.85182 0.46706,0.4685 6.47421,-13.1628 13.34921,-30.29178 l 12.5,-31.14361 9.6875,-0.0207 9.6875,-0.0207 0,41.875 0,41.875 -6.85425,0 -6.85424,0 -0.33326,-32.8125 -0.33325,-32.8125 -13.0336,32.87357 -13.03361,32.87357 -4.8746,-0.37357 -4.87462,-0.37357 -12.72864,-31.4702 c -7.00077,-17.30861 -13.14519,-31.88673 -13.65429,-32.39583 -0.5091,-0.5091 -0.92564,13.79311 -0.92564,31.7827 l 0,32.70833 -6.25,0 -6.25,0 0,-41.92555 z m 105,11.92555 0,-30 6.25,0 6.25,0 0,30 0,30 -6.25,0 -6.25,0 0,-30 z m 82.5,0 0,-30 6.25,0 6.25,0 0,5 c 0,2.75 0.5625,5 1.25,5 0.6875,0 1.25,-0.7457 1.25,-1.65711 0,-4.2639 10.67782,-10.32125 15.88871,-9.0134 2.49053,0.62508 2.86129,1.50503 2.86129,6.79078 l 0,6.07264 -5.45084,-0.61439 c -6.92085,-0.78008 -11.13682,1.81973 -13.81817,8.52109 -1.47742,3.69242 -1.98099,9.39312 -1.98099,22.42569 l 0,17.4747 -6.25,0 -6.25,0 0,-30 z m -80.9375,-41.88077 c -3.53262,-2.52589 -3.71084,-8.16878 -0.35393,-11.20674 6.98207,-6.31868 17.782,2.25383 12.22893,9.70676 -2.31789,3.1109 -8.52541,3.895 -11.875,1.49998 z"
         id="path7671"
         inkscape:connector-curvature="0" />
    </g>
  </g>
</svg>
